<svg width="183px" height="48px" viewBox="0 0 183 48"
  xmlns="http://www.w3.org/2000/svg" version="1.1">
  <g id="logo">
    <g stroke="null" id="svg_2">
      <path stroke="null" id="svg_3" d="m9.39827,0.49564l0,47.78423l47.52387,0l0,-47.78423l-47.52387,0z" fill=" #ffffff" opacity="0"></path>
      <path stroke="null" id="svg_4" d="m32.88163,2.49144l0.07952,0.03839l-0.07952,-0.03839m-0.31846,0.07677l0.11941,0.11514l-0.11941,-0.11514z" fill="currentColor"></path>
      <path stroke="null" id="svg_5" d="m32.68258,2.65377c-1.64232,0.41782 -3.42984,1.84645 -4.89568,2.67662c-3.33001,1.88596 -6.69001,3.72505 -10.03016,5.59437c-1.1908,0.66643 -2.39924,1.30381 -3.5822,1.98315c-0.43134,0.24779 -1.15293,0.4897 -1.36083,0.96559c-0.55584,1.27221 -0.07205,3.66188 -0.07205,5.04498l0,11.8597l0,3.79971c0,0.45919 -0.13423,1.16547 0.12273,1.57412c0.52717,0.83847 2.34939,1.447 3.22066,1.92864c2.63218,1.45517 5.27073,2.90494 7.88084,4.39638c2.21225,1.26415 4.45662,2.47856 6.68678,3.71301c0.64468,0.35683 1.72244,1.28384 2.50754,1.08315c1.49461,-0.38204 3.07365,-1.67659 4.41805,-2.41523c3.55486,-1.95305 7.07891,-3.95792 10.6272,-5.9219l3.46279,-1.92288c0.43345,-0.23846 1.15407,-0.48648 1.36088,-0.95971c0.55584,-1.27221 0.072,-3.66188 0.072,-5.04498l0,-11.8597l0,-3.79971c0,-0.45919 0.13421,-1.16547 -0.12275,-1.57412c-0.51237,-0.8151 -2.2618,-1.37503 -3.10123,-1.85707c-2.72414,-1.56442 -5.48423,-3.08289 -8.23906,-4.59646c-2.15565,-1.18438 -4.29327,-2.39848 -6.44796,-3.58444c-0.64121,-0.35295 -1.73438,-1.2799 -2.50754,-1.08319l-0.00001,-0.00003z" fill="currentColor"></path>
      <path stroke="null" id="svg_6" d="m33.16021,2.56821l0.11941,0.11514l-0.11941,-0.11514z" fill="currentColor"></path>
      <path stroke="null" id="svg_7" d="m32.20495,2.79849l0.11941,0.11514l-0.11941,-0.11514m1.31347,0l0.11941,0.11514l-0.11941,-0.11514z" fill="currentColor"></path>
      <path stroke="null" id="svg_8" d="m31.96614,2.91364l0.11941,0.11514l-0.11941,-0.11514m1.7911,0l0.11941,0.11514l-0.11941,-0.11514m-2.02991,0.11514l0.11941,0.11514l-0.11941,-0.11514m2.26873,0l0.11941,0.11514l-0.11941,-0.11514z" fill="currentColor"></path>
      <path stroke="null" id="svg_9" d="m34.11546,3.14392l0.11941,0.11514l-0.11941,-0.11514m-2.74635,0.11514l0.11941,0.11514l-0.11941,-0.11514m2.98517,0l0.11941,0.11514l-0.11941,-0.11514z" fill="currentColor"></path>
      <path stroke="null" id="svg_10" d="m31.13029,3.37421l0.11941,0.11514l-0.11941,-0.11514m3.46279,0l0.11941,0.11514l-0.11941,-0.11514z" fill="currentColor"></path>
      <path stroke="null" id="svg_11" d="m30.77207,3.60449l0.11941,0.11514l-0.11941,-0.11514m4.17923,0l0.11941,0.11514l-0.11941,-0.11514m-4.41805,0.11514l0.11941,0.11514l-0.11941,-0.11514z" fill="currentColor"></path>
      <path stroke="null" id="svg_12" d="m35.19012,3.71964l0.11941,0.11514l-0.11941,-0.11514m-4.89568,0.11514l0.11941,0.11514l-0.11941,-0.11514m5.13449,0l0.11941,0.11514l-0.11941,-0.11514z" fill="currentColor"></path>
      <path stroke="null" id="svg_13" d="m29.93622,4.06506l0.11941,0.11514l-0.11941,-0.11514m5.85093,0l0.11941,0.11514l-0.11941,-0.11514z" fill="currentColor"></path>
      <path stroke="null" id="svg_14" d="m29.69741,4.18021l0.11941,0.11514l-0.11941,-0.11514m6.32856,0l0.11941,0.11514l-0.11941,-0.11514m-6.56737,0.11514l0.11941,0.11514l-0.11941,-0.11514m6.80618,0l0.11941,0.11514l-0.11941,-0.11514z" fill="currentColor"></path>
      <path stroke="null" id="svg_15" d="m29.10038,4.52563l0.11941,0.11514l-0.11941,-0.11514z" fill="currentColor"></path>
      <path stroke="null" id="svg_16" d="m32.88163,4.56401l0.07952,0.03839l-0.07952,-0.03839z" fill="currentColor"></path>
      <path stroke="null" id="svg_17" d="m36.623,4.52563l0.11941,0.11514l-0.11941,-0.11514z" fill="currentColor"></path>
      <path stroke="null" id="svg_18" d="m28.86156,4.64078l0.11941,0.11514l-0.11941,-0.11514m3.70161,0l0.11941,0.11514l-0.11941,-0.11514z" fill="currentColor"></path>
      <path stroke="null" id="svg_19" d="m32.68258,4.72047c-1.48649,0.3473 -3.09645,1.66494 -4.41805,2.40458c-3.0998,1.73483 -6.20437,3.46284 -9.31372,5.18181c-1.03643,0.57295 -2.07683,1.14268 -3.10457,1.7299c-0.3718,0.21255 -1.02268,0.44065 -1.15611,0.87624c-0.41986,1.37066 -0.03796,3.37967 -0.03796,4.81147l0,10.47799l0,3.56942c0,0.40588 -0.12905,1.07198 0.12273,1.42385c0.52188,0.7292 2.07446,1.23997 2.86244,1.68627c2.45738,1.39173 4.92827,2.76412 7.40322,4.1266c1.91564,1.05448 3.83391,2.11126 5.73152,3.19556c0.62784,0.35878 1.6151,1.18286 2.38813,1.00232c1.48649,-0.34727 3.09645,-1.66496 4.41805,-2.40464c3.10004,-1.73486 6.23016,-3.4225 9.31372,-5.18453c1.02929,-0.58826 2.06502,-1.16939 3.10457,-1.7405c0.37613,-0.20668 1.02176,-0.4243 1.1561,-0.86288c0.41983,-1.37066 0.03797,-3.37967 0.03797,-4.81147l0,-10.47799l0,-3.56942c0,-0.40588 0.12908,-1.07198 -0.12275,-1.42385c-0.53697,-0.75027 -2.16532,-1.30031 -2.98182,-1.75167c-2.43327,-1.34512 -4.84791,-2.72038 -7.28381,-4.06114c-1.91588,-1.05456 -3.83367,-2.11115 -5.73152,-3.19566c-0.62784,-0.35878 -1.6151,-1.18285 -2.38813,-1.00226l-0.00001,0z" fill=" #ffffff"></path>
      <path stroke="null" id="svg_20" d="m33.16021,4.64078l0.11941,0.11514l-0.11941,-0.11514m3.70161,0l0.11941,0.11514l-0.11941,-0.11514m-8.23906,0.11514l0.11941,0.11514l-0.11941,-0.11514z" fill="currentColor"></path>
      <path stroke="null" id="svg_21" d="m32.32436,4.75592l0.11941,0.11514l-0.11941,-0.11514m1.07466,0l0.11941,0.11514l-0.11941,-0.11514m3.82101,0.11514l0.11941,0.11514l-0.11941,-0.11514m-8.9555,0.11514l0.11941,0.11514l-0.11941,-0.11514z" fill="currentColor"></path>
      <path stroke="null" id="svg_22" d="m31.96614,4.98621l0.11941,0.11514l-0.11941,-0.11514m1.7911,0l0.11941,0.11514l-0.11941,-0.11514z" fill="currentColor"></path>
      <path stroke="null" id="svg_23" d="m37.45885,4.98621l0.11941,0.11514l-0.11941,-0.11514z" fill="currentColor"></path>
      <path stroke="null" id="svg_24" d="m28.02572,5.10135l0.11941,0.11514l-0.11941,-0.11514z" fill="currentColor"></path>
      <path stroke="null" id="svg_25" d="m31.72733,5.10135l0.11941,0.11514l-0.11941,-0.11514m2.26873,0l0.11941,0.11514l-0.11941,-0.11514z" fill="currentColor"></path>
      <path stroke="null" id="svg_26" d="m37.69766,5.10135l0.11941,0.11514l-0.11941,-0.11514m-9.91076,0.11514l0.11941,0.11514l-0.11941,-0.11514z" fill="currentColor"></path>
      <path stroke="null" id="svg_27" d="m31.48851,5.21649l0.11941,0.11514l-0.11941,-0.11514m2.74635,0l0.11941,0.11514l-0.11941,-0.11514m-6.56737,0.11514l0.11941,0.11514l-0.11941,-0.11514m10.38838,0l0.11941,0.11514l-0.11941,-0.11514m-10.6272,0.11514l0.11941,0.11514l-0.11941,-0.11514z" fill="currentColor"></path>
      <path stroke="null" id="svg_28" d="m31.13029,5.44678l0.11941,0.11514l-0.11941,-0.11514m3.46279,0l0.11941,0.11514l-0.11941,-0.11514m3.70161,0l0.11941,0.11514l-0.11941,-0.11514m-11.10482,0.11514l0.11941,0.11514l-0.11941,-0.11514z" fill="currentColor"></path>
      <path stroke="null" id="svg_29" d="m30.89148,5.56192l0.11941,0.11514l-0.11941,-0.11514m3.94042,0l0.11941,0.11514l-0.11941,-0.11514z" fill="currentColor"></path>
      <path stroke="null" id="svg_30" d="m38.53351,5.56192l0.11941,0.11514l-0.11941,-0.11514z" fill="currentColor"></path>
      <path stroke="null" id="svg_31" d="m26.83165,5.7922l0.11941,0.11514l-0.11941,-0.11514z" fill="currentColor"></path>
      <path stroke="null" id="svg_32" d="m30.53326,5.7922l0.11941,0.11514l-0.11941,-0.11514m4.65686,0l0.11941,0.11514l-0.11941,-0.11514z" fill="currentColor"></path>
      <path stroke="null" id="svg_33" d="m38.89173,5.7922l0.11941,0.11514l-0.11941,-0.11514m-12.29889,0.11514l0.11941,0.11514l-0.11941,-0.11514z" fill="currentColor"></path>
      <path stroke="null" id="svg_34" d="m30.29444,5.90735l0.11941,0.11514l-0.11941,-0.11514m5.13449,0l0.11941,0.11514l-0.11941,-0.11514m3.70161,0l0.11941,0.11514l-0.11941,-0.11514m-12.77652,0.11514l0.11941,0.11514l-0.11941,-0.11514z" fill="currentColor"></path>
      <path stroke="null" id="svg_35" d="m30.05563,6.02249l0.11941,0.11514l-0.11941,-0.11514m5.61212,0l0.11941,0.11514l-0.11941,-0.11514z" fill="currentColor"></path>
      <path stroke="null" id="svg_36" d="m39.36935,6.02249l0.11941,0.11514l-0.11941,-0.11514z" fill="currentColor"></path>
      <path stroke="null" id="svg_37" d="m39.48876,6.13763l0.11941,0.11514l-0.11941,-0.11514m-13.49296,0.11514l0.11941,0.11514l-0.11941,-0.11514z" fill="currentColor"></path>
      <path stroke="null" id="svg_38" d="m29.69741,6.25277l0.11941,0.11514l-0.11941,-0.11514m6.32856,0l0.11941,0.11514l-0.11941,-0.11514z" fill="currentColor"></path>
      <path stroke="null" id="svg_39" d="m39.72757,6.25277l0.11941,0.11514l-0.11941,-0.11514z" fill="currentColor"></path>
      <path stroke="null" id="svg_40" d="m25.75699,6.36792l0.11941,0.11514l-0.11941,-0.11514z" fill="currentColor"></path>
      <path stroke="null" id="svg_41" d="m29.4586,6.36792l0.11941,0.11514l-0.11941,-0.11514z" fill="currentColor"></path>
      <path stroke="null" id="svg_42" d="m36.26478,6.36792l0.11941,0.11514l-0.11941,-0.11514m3.70161,0l0.11941,0.11514l-0.11941,-0.11514m-14.44821,0.11514l0.11941,0.11514l-0.11941,-0.11514z" fill="currentColor"></path>
      <path stroke="null" id="svg_43" d="m29.21978,6.48306l0.11941,0.11514l-0.11941,-0.11514m7.28381,0l0.11941,0.11514l-0.11941,-0.11514z" fill="currentColor"></path>
      <path stroke="null" id="svg_44" d="m36.623,6.5982l0.11941,0.11514l-0.11941,-0.11514z" fill="currentColor"></path>
      <path stroke="null" id="svg_45" d="m40.32461,6.5982l0.11941,0.11514l-0.11941,-0.11514m-15.16465,0.11514l0.11941,0.11514l-0.11941,-0.11514z" fill="currentColor"></path>
      <path stroke="null" id="svg_46" d="m28.86156,6.71335l0.11941,0.11514l-0.11941,-0.11514m8.00025,0l0.11941,0.11514l-0.11941,-0.11514z" fill="currentColor"></path>
      <path stroke="null" id="svg_47" d="m40.56342,6.71335l0.11941,0.11514l-0.11941,-0.11514z" fill="currentColor"></path>
      <path stroke="null" id="svg_48" d="m24.92114,6.82849l0.11941,0.11514l-0.11941,-0.11514z" fill="currentColor"></path>
      <path stroke="null" id="svg_49" d="m28.62275,6.82849l0.11941,0.11514l-0.11941,-0.11514m8.47788,0l0.11941,0.11514l-0.11941,-0.11514z" fill="currentColor"></path>
      <path stroke="null" id="svg_50" d="m40.80224,6.82849l0.11941,0.11514l-0.11941,-0.11514m-16.11991,0.11514l0.11941,0.11514l-0.11941,-0.11514z" fill="currentColor"></path>
      <path stroke="null" id="svg_51" d="m37.33944,6.94363l0.11941,0.11514l-0.11941,-0.11514z" fill="currentColor"></path>
      <path stroke="null" id="svg_52" d="m28.26453,7.05877l0.11941,0.11514l-0.11941,-0.11514m9.19432,0l0.11941,0.11514l-0.11941,-0.11514z" fill="currentColor"></path>
      <path stroke="null" id="svg_53" d="m41.16046,7.05877l0.11941,0.11514l-0.11941,-0.11514m-16.83635,0.11514l0.11941,0.11514l-0.11941,-0.11514z" fill="currentColor"></path>
      <path stroke="null" id="svg_54" d="m28.02572,7.17392l0.11941,0.11514l-0.11941,-0.11514m9.67194,0l0.11941,0.11514l-0.11941,-0.11514m3.70161,0l0.11941,0.11514l-0.11941,-0.11514m-17.31397,0.11514l0.11941,0.11514l-0.11941,-0.11514z" fill="currentColor"></path>
      <path stroke="null" id="svg_55" d="m27.7869,7.28906l0.11941,0.11514l-0.11941,-0.11514m10.14957,0l0.11941,0.11514l-0.11941,-0.11514z" fill="currentColor"></path>
      <path stroke="null" id="svg_56" d="m41.63808,7.28906l0.11941,0.11514l-0.11941,-0.11514m-17.7916,0.11514l0.11941,0.11514l-0.11941,-0.11514z" fill="currentColor"></path>
      <path stroke="null" id="svg_57" d="m23.72708,7.51934l0.11941,0.11514l-0.11941,-0.11514z" fill="currentColor"></path>
      <path stroke="null" id="svg_58" d="m27.42868,7.51934l0.11941,0.11514l-0.11941,-0.11514m10.86601,0l0.11941,0.11514l-0.11941,-0.11514z" fill="currentColor"></path>
      <path stroke="null" id="svg_59" d="m41.9963,7.51934l0.11941,0.11514l-0.11941,-0.11514m-18.50804,0.11514l0.11941,0.11514l-0.11941,-0.11514m3.70161,0l0.11941,0.11514l-0.11941,-0.11514z" fill="currentColor"></path>
      <path stroke="null" id="svg_60" d="m38.53351,7.63449l0.11941,0.11514l-0.11941,-0.11514m3.70161,0l0.11941,0.11514l-0.11941,-0.11514m-18.98567,0.11514l0.11941,0.11514l-0.11941,-0.11514z" fill="currentColor"></path>
      <path stroke="null" id="svg_61" d="m26.95106,7.74963l0.11941,0.11514l-0.11941,-0.11514m11.82126,0l0.11941,0.11514l-0.11941,-0.11514m3.82101,0.11514l0.11941,0.11514l-0.11941,-0.11514m-19.70211,0.11514l0.11941,0.11514l-0.11941,-0.11514z" fill="currentColor"></path>
      <path stroke="null" id="svg_62" d="m26.59284,7.97992l0.11941,0.11514l-0.11941,-0.11514m12.5377,0l0.11941,0.11514l-0.11941,-0.11514z" fill="currentColor"></path>
      <path stroke="null" id="svg_63" d="m42.83215,7.97992l0.11941,0.11514l-0.11941,-0.11514m-20.17973,0.11514l0.11941,0.11514l-0.11941,-0.11514m3.70161,0l0.11941,0.11514l-0.11941,-0.11514m13.01533,0l0.11941,0.11514l-0.11941,-0.11514z" fill="currentColor"></path>
      <path stroke="null" id="svg_64" d="m43.07096,8.09506l0.11941,0.11514l-0.11941,-0.11514m-20.65736,0.11514l0.11941,0.11514l-0.11941,-0.11514z" fill="currentColor"></path>
      <path stroke="null" id="svg_65" d="m26.11521,8.2102l0.11941,0.11514l-0.11941,-0.11514m13.49296,0l0.11941,0.11514l-0.11941,-0.11514z" fill="currentColor"></path>
      <path stroke="null" id="svg_66" d="m25.9958,8.32534l0.11941,0.11514l-0.11941,-0.11514m13.73177,0l0.11941,0.11514l-0.11941,-0.11514z" fill="currentColor"></path>
      <path stroke="null" id="svg_67" d="m43.42918,8.32534l0.11941,0.11514l-0.11941,-0.11514m-21.3738,0.11514l0.11941,0.11514l-0.11941,-0.11514z" fill="currentColor"></path>
      <path stroke="null" id="svg_68" d="m25.75699,8.44049l0.11941,0.11514l-0.11941,-0.11514m14.2094,0l0.11941,0.11514l-0.11941,-0.11514m3.70161,0l0.11941,0.11514l-0.11941,-0.11514m-21.85143,0.11514l0.11941,0.11514l-0.11941,-0.11514z" fill="currentColor"></path>
      <path stroke="null" id="svg_69" d="m25.51818,8.55563l0.11941,0.11514l-0.11941,-0.11514m14.68703,0l0.11941,0.11514l-0.11941,-0.11514z" fill="currentColor"></path>
      <path stroke="null" id="svg_70" d="m43.90681,8.55563l0.11941,0.11514l-0.11941,-0.11514z" fill="currentColor"></path>
      <path stroke="null" id="svg_71" d="m21.45835,8.78591l0.11941,0.11514l-0.11941,-0.11514z" fill="currentColor"></path>
      <path stroke="null" id="svg_72" d="m25.15996,8.78591l0.11941,0.11514l-0.11941,-0.11514m15.40347,0l0.11941,0.11514l-0.11941,-0.11514z" fill="currentColor"></path>
      <path stroke="null" id="svg_73" d="m44.26503,8.78591l0.11941,0.11514l-0.11941,-0.11514z" fill="currentColor"></path>
      <path stroke="null" id="svg_74" d="m21.21953,8.90106l0.11941,0.11514l-0.11941,-0.11514z" fill="currentColor"></path>
      <path stroke="null" id="svg_75" d="m24.92114,8.90106l0.11941,0.11514l-0.11941,-0.11514z" fill="currentColor"></path>
      <path stroke="null" id="svg_76" d="m40.80224,8.90106l0.11941,0.11514l-0.11941,-0.11514m3.70161,0l0.11941,0.11514l-0.11941,-0.11514m-23.52312,0.11514l0.11941,0.11514l-0.11941,-0.11514z" fill="currentColor"></path>
      <path stroke="null" id="svg_77" d="m24.68233,9.0162l0.11941,0.11514l-0.11941,-0.11514m16.35872,0l0.11941,0.11514l-0.11941,-0.11514z" fill="currentColor"></path>
      <path stroke="null" id="svg_78" d="m44.74266,9.0162l0.11941,0.11514l-0.11941,-0.11514z" fill="currentColor"></path>
      <path stroke="null" id="svg_79" d="m20.86131,9.13134l0.11941,0.11514l-0.11941,-0.11514m24.00075,0l0.11941,0.11514l-0.11941,-0.11514m-24.23956,0.11514l0.11941,0.11514l-0.11941,-0.11514z" fill="currentColor"></path>
      <path stroke="null" id="svg_80" d="m24.32411,9.24649l0.11941,0.11514l-0.11941,-0.11514m17.07516,0l0.11941,0.11514l-0.11941,-0.11514z" fill="currentColor"></path>
      <path stroke="null" id="svg_81" d="m45.10088,9.24649l0.11941,0.11514l-0.11941,-0.11514z" fill="currentColor"></path>
      <path stroke="null" id="svg_82" d="m20.38369,9.36163l0.11941,0.11514l-0.11941,-0.11514z" fill="currentColor"></path>
      <path stroke="null" id="svg_83" d="m24.0853,9.36163l0.11941,0.11514l-0.11941,-0.11514m17.55279,0l0.11941,0.11514l-0.11941,-0.11514z" fill="currentColor"></path>
      <path stroke="null" id="svg_84" d="m45.33969,9.36163l0.11941,0.11514l-0.11941,-0.11514z" fill="currentColor"></path>
      <path stroke="null" id="svg_85" d="m41.8769,9.47677l0.11941,0.11514l-0.11941,-0.11514m-21.85143,0.11514l0.11941,0.11514l-0.11941,-0.11514z" fill="currentColor"></path>
      <path stroke="null" id="svg_86" d="m23.72708,9.59191l0.11941,0.11514l-0.11941,-0.11514z" fill="currentColor"></path>
      <path stroke="null" id="svg_87" d="m45.69791,9.59191l0.11941,0.11514l-0.11941,-0.11514m-25.91126,0.11514l0.11941,0.11514l-0.11941,-0.11514z" fill="currentColor"></path>
      <path stroke="null" id="svg_88" d="m23.48826,9.70706l0.11941,0.11514l-0.11941,-0.11514m18.74685,0l0.11941,0.11514l-0.11941,-0.11514z" fill="currentColor"></path>
      <path stroke="null" id="svg_89" d="m45.93672,9.70706l0.11941,0.11514l-0.11941,-0.11514z" fill="currentColor"></path>
      <path stroke="null" id="svg_90" d="m19.54784,9.8222l0.11941,0.11514l-0.11941,-0.11514z" fill="currentColor"></path>
      <path stroke="null" id="svg_91" d="m23.24945,9.8222l0.11941,0.11514l-0.11941,-0.11514m19.22448,0l0.11941,0.11514l-0.11941,-0.11514z" fill="currentColor"></path>
      <path stroke="null" id="svg_92" d="m46.17554,9.8222l0.11941,0.11514l-0.11941,-0.11514z" fill="currentColor"></path>
      <path stroke="null" id="svg_93" d="m19.18962,10.05248l0.11941,0.11514l-0.11941,-0.11514z" fill="currentColor"></path>
      <path stroke="null" id="svg_94" d="m22.89123,10.05248l0.11941,0.11514l-0.11941,-0.11514z" fill="currentColor"></path>
      <path stroke="null" id="svg_95" d="m46.53376,10.05248l0.11941,0.11514l-0.11941,-0.11514z" fill="currentColor"></path>
      <path stroke="null" id="svg_96" d="m18.95081,10.16763l0.11941,0.11514l-0.11941,-0.11514z" fill="currentColor"></path>
      <path stroke="null" id="svg_97" d="m22.65241,10.16763l0.11941,0.11514l-0.11941,-0.11514z" fill="currentColor"></path>
      <path stroke="null" id="svg_98" d="m43.07096,10.16763l0.11941,0.11514l-0.11941,-0.11514m3.70161,0l0.11941,0.11514l-0.11941,-0.11514m-28.06058,0.11514l0.11941,0.11514l-0.11941,-0.11514z" fill="currentColor"></path>
      <path stroke="null" id="svg_99" d="m22.4136,10.28277l0.11941,0.11514l-0.11941,-0.11514m20.89617,0l0.11941,0.11514l-0.11941,-0.11514z" fill="currentColor"></path>
      <path stroke="null" id="svg_100" d="m47.01138,10.28277l0.11941,0.11514l-0.11941,-0.11514z" fill="currentColor"></path>
      <path stroke="null" id="svg_101" d="m18.35377,10.51306l0.11941,0.11514l-0.11941,-0.11514z" fill="currentColor"></path>
      <path stroke="null" id="svg_102" d="m22.05538,10.51306l0.11941,0.11514l-0.11941,-0.11514m21.61261,0l0.11941,0.11514l-0.11941,-0.11514z" fill="currentColor"></path>
      <path stroke="null" id="svg_103" d="m47.3696,10.51306l0.11941,0.11514l-0.11941,-0.11514z" fill="currentColor"></path>
      <path stroke="null" id="svg_104" d="m18.11496,10.6282l0.11941,0.11514l-0.11941,-0.11514m3.70161,0l0.11941,0.11514l-0.11941,-0.11514z" fill="currentColor"></path>
      <path stroke="null" id="svg_105" d="m43.90681,10.6282l0.11941,0.11514l-0.11941,-0.11514z" fill="currentColor"></path>
      <path stroke="null" id="svg_106" d="m47.60842,10.6282l0.11941,0.11514l-0.11941,-0.11514m-29.73227,0.11514l0.11941,0.11514l-0.11941,-0.11514z" fill="currentColor"></path>
      <path stroke="null" id="svg_107" d="m21.57775,10.74334l0.11941,0.11514l-0.11941,-0.11514m22.56787,0l0.11941,0.11514l-0.11941,-0.11514m-26.38888,0.11514l0.11941,0.11514l-0.11941,-0.11514m30.2099,0l0.11941,0.11514l-0.11941,-0.11514m-30.44871,0.11514l0.11941,0.11514l-0.11941,-0.11514z" fill="currentColor"></path>
      <path stroke="null" id="svg_108" d="m21.21953,10.97363l0.11941,0.11514l-0.11941,-0.11514m23.28431,0l0.11941,0.11514l-0.11941,-0.11514z" fill="currentColor"></path>
      <path stroke="null" id="svg_109" d="m48.20545,10.97363l0.11941,0.11514l-0.11941,-0.11514z" fill="currentColor"></path>
      <path stroke="null" id="svg_110" d="m17.27911,11.08877l0.11941,0.11514l-0.11941,-0.11514z" fill="currentColor"></path>
      <path stroke="null" id="svg_111" d="m20.98072,11.08877l0.11941,0.11514l-0.11941,-0.11514m23.76194,0l0.11941,0.11514l-0.11941,-0.11514z" fill="currentColor"></path>
      <path stroke="null" id="svg_112" d="m48.44426,11.08877l0.11941,0.11514l-0.11941,-0.11514z" fill="currentColor"></path>
      <path stroke="null" id="svg_113" d="m20.74191,11.20391l0.11941,0.11514l-0.11941,-0.11514m-3.82101,0.11514l0.11941,0.11514l-0.11941,-0.11514z" fill="currentColor"></path>
      <path stroke="null" id="svg_114" d="m45.10088,11.31905l0.11941,0.11514l-0.11941,-0.11514z" fill="currentColor"></path>
      <path stroke="null" id="svg_115" d="m48.80248,11.31905l0.11941,0.11514l-0.11941,-0.11514m-32.12041,0.11514l0.11941,0.11514l-0.11941,-0.11514z" fill="currentColor"></path>
      <path stroke="null" id="svg_116" d="m20.38369,11.4342l0.11941,0.11514l-0.11941,-0.11514m24.956,0l0.11941,0.11514l-0.11941,-0.11514m3.70161,0l0.11941,0.11514l-0.11941,-0.11514m-32.59803,0.11514l0.11941,0.11514l-0.11941,-0.11514z" fill="currentColor"></path>
      <path stroke="null" id="svg_117" d="m20.14487,11.54934l0.11941,0.11514l-0.11941,-0.11514m25.43363,0l0.11941,0.11514l-0.11941,-0.11514z" fill="currentColor"></path>
      <path stroke="null" id="svg_118" d="m49.28011,11.54934l0.11941,0.11514l-0.11941,-0.11514z" fill="currentColor"></path>
      <path stroke="null" id="svg_119" d="m16.08505,11.77963l0.11941,0.11514l-0.11941,-0.11514z" fill="currentColor"></path>
      <path stroke="null" id="svg_120" d="m19.78665,11.77963l0.11941,0.11514l-0.11941,-0.11514m26.15007,0l0.11941,0.11514l-0.11941,-0.11514z" fill="currentColor"></path>
      <path stroke="null" id="svg_121" d="m49.63833,11.77963l0.11941,0.11514l-0.11941,-0.11514z" fill="currentColor"></path>
      <path stroke="null" id="svg_122" d="m15.84623,11.89477l0.11941,0.11514l-0.11941,-0.11514m3.70161,0l0.11941,0.11514l-0.11941,-0.11514z" fill="currentColor"></path>
      <path stroke="null" id="svg_123" d="m46.17554,11.89477l0.11941,0.11514l-0.11941,-0.11514z" fill="currentColor"></path>
      <path stroke="null" id="svg_124" d="m49.87715,11.89477l0.11941,0.11514l-0.11941,-0.11514m-34.26973,0.11514l0.11941,0.11514l-0.11941,-0.11514z" fill="currentColor"></path>
      <path stroke="null" id="svg_125" d="m19.30903,12.00991l0.11941,0.11514l-0.11941,-0.11514m27.10532,0l0.11941,0.11514l-0.11941,-0.11514z" fill="currentColor"></path>
      <path stroke="null" id="svg_126" d="m50.11596,12.00991l0.11941,0.11514l-0.11941,-0.11514m-3.5822,0.11514l0.11941,0.11514l-0.11941,-0.11514z" fill="currentColor"></path>
      <path stroke="null" id="svg_127" d="m50.23537,12.12505l0.11941,0.11514l-0.11941,-0.11514m-34.98617,0.11514l0.11941,0.11514l-0.11941,-0.11514z" fill="currentColor"></path>
      <path stroke="null" id="svg_128" d="m18.95081,12.2402l0.11941,0.11514l-0.11941,-0.11514m27.82176,0l0.11941,0.11514l-0.11941,-0.11514z" fill="currentColor"></path>
      <path stroke="null" id="svg_129" d="m50.47418,12.2402l0.11941,0.11514l-0.11941,-0.11514z" fill="currentColor"></path>
      <path stroke="null" id="svg_130" d="m15.01039,12.35534l0.11941,0.11514l-0.11941,-0.11514z" fill="currentColor"></path>
      <path stroke="null" id="svg_131" d="m18.71199,12.35534l0.11941,0.11514l-0.11941,-0.11514m28.29939,0l0.11941,0.11514l-0.11941,-0.11514z" fill="currentColor"></path>
      <path stroke="null" id="svg_132" d="m50.71299,12.35534l0.11941,0.11514l-0.11941,-0.11514m-35.94142,0.11514l0.11941,0.11514l-0.11941,-0.11514z" fill="currentColor"></path>
      <path stroke="null" id="svg_133" d="m18.47318,12.47048l0.11941,0.11514l-0.11941,-0.11514m28.77702,0l0.11941,0.11514l-0.11941,-0.11514z" fill="currentColor"></path>
      <path stroke="null" id="svg_134" d="m47.3696,12.58562l0.11941,0.11514l-0.11941,-0.11514z" fill="currentColor"></path>
      <path stroke="null" id="svg_135" d="m51.07121,12.58562l0.11941,0.11514l-0.11941,-0.11514m-36.65786,0.11514l0.11941,0.11514l-0.11941,-0.11514z" fill="currentColor"></path>
      <path stroke="null" id="svg_136" d="m18.11496,12.70077l0.11941,0.11514l-0.11941,-0.11514m29.49346,0l0.11941,0.11514l-0.11941,-0.11514z" fill="currentColor"></path>
      <path stroke="null" id="svg_137" d="m51.31003,12.70077l0.11941,0.11514l-0.11941,-0.11514z" fill="currentColor"></path>
      <path stroke="null" id="svg_138" d="m14.17454,12.81591l0.11941,0.11514l-0.11941,-0.11514z" fill="currentColor"></path>
      <path stroke="null" id="svg_139" d="m17.87615,12.81591l0.11941,0.11514l-0.11941,-0.11514m29.97108,0l0.11941,0.11514l-0.11941,-0.11514z" fill="currentColor"></path>
      <path stroke="null" id="svg_140" d="m51.54884,12.81591l0.11941,0.11514l-0.11941,-0.11514z" fill="currentColor"></path>
      <path stroke="null" id="svg_141" d="m13.81632,13.04619l0.11941,0.11514l-0.11941,-0.11514z" fill="currentColor"></path>
      <path stroke="null" id="svg_142" d="m17.51793,13.04619l0.11941,0.11514l-0.11941,-0.11514m30.68753,0l0.11941,0.11514l-0.11941,-0.11514z" fill="currentColor"></path>
      <path stroke="null" id="svg_143" d="m51.90706,13.04619l0.11941,0.11514l-0.11941,-0.11514m-38.32955,0.11514l0.11941,0.11514l-0.11941,-0.11514z" fill="currentColor"></path>
      <path stroke="null" id="svg_144" d="m17.27911,13.16134l0.11941,0.11514l-0.11941,-0.11514m31.16515,0l0.11941,0.11514l-0.11941,-0.11514m3.70161,0l0.11941,0.11514l-0.11941,-0.11514m-38.80718,0.11514l0.11941,0.11514l-0.11941,-0.11514z" fill="currentColor"></path>
      <path stroke="null" id="svg_145" d="m17.0403,13.27648l0.11941,0.11514l-0.11941,-0.11514m31.64278,0l0.11941,0.11514l-0.11941,-0.11514z" fill="currentColor"></path>
      <path stroke="null" id="svg_146" d="m52.38469,13.27648l0.11941,0.11514l-0.11941,-0.11514z" fill="currentColor"></path>
      <path stroke="null" id="svg_147" d="m12.98047,13.50677l0.11941,0.11514l-0.11941,-0.11514z" fill="currentColor"></path>
      <path stroke="null" id="svg_148" d="m16.68208,13.50677l0.11941,0.11514l-0.11941,-0.11514m32.35922,0l0.11941,0.11514l-0.11941,-0.11514z" fill="currentColor"></path>
      <path stroke="null" id="svg_149" d="m52.74291,13.50677l0.11941,0.11514l-0.11941,-0.11514z" fill="currentColor"></path>
      <path stroke="null" id="svg_150" d="m12.74166,13.62191l0.11941,0.11514l-0.11941,-0.11514z" fill="currentColor"></path>
      <path stroke="null" id="svg_151" d="m16.44327,13.62191l0.11941,0.11514l-0.11941,-0.11514m32.83685,0l0.11941,0.11514l-0.11941,-0.11514z" fill="currentColor"></path>
      <path stroke="null" id="svg_152" d="m52.98172,13.62191l0.11941,0.11514l-0.11941,-0.11514z" fill="currentColor"></path>
      <path stroke="null" id="svg_153" d="m16.20445,13.73705l0.11941,0.11514l-0.11941,-0.11514m33.31447,0l0.11941,0.11514l-0.11941,-0.11514z" fill="currentColor"></path>
      <path stroke="null" id="svg_154" d="m49.63833,13.85219l0.11941,0.11514l-0.11941,-0.11514m-33.7921,0.11514l0.11941,0.11514l-0.11941,-0.11514m34.03091,0l0.11941,0.11514l-0.11941,-0.11514z" fill="currentColor"></path>
      <path stroke="null" id="svg_155" d="m15.60742,14.08248l0.11941,0.11514l-0.11941,-0.11514m34.50854,0l0.11941,0.11514l-0.11941,-0.11514z" fill="currentColor"></path>
      <path stroke="null" id="svg_156" d="m15.2492,14.31276l0.11941,0.11514l-0.11941,-0.11514m35.22498,0l0.11941,0.11514l-0.11941,-0.11514m-35.46379,0.11514l0.11941,0.11514l-0.11941,-0.11514m35.70261,0l0.11941,0.11514l-0.11941,-0.11514z" fill="currentColor"></path>
      <path stroke="null" id="svg_157" d="m14.77157,14.54305l0.11941,0.11514l-0.11941,-0.11514m36.18023,0l0.11941,0.11514l-0.11941,-0.11514z" fill="currentColor"></path>
      <path stroke="null" id="svg_158" d="m14.53276,14.77334l0,20.38026l0.11941,0l0,-14.2777l0,-4.14514l-0.11941,-1.95743m36.65786,0l0,20.38026l0.11941,0l0,-14.2777l0,-4.14514l-0.11941,-1.95743l0,0.00001z" fill="currentColor"></path>
      <path stroke="null" id="svg_159" d="m32.88163,15.38739l0.07952,0.03846l-0.07952,-0.03846z" fill="currentColor"></path>
      <path stroke="null" id="svg_160" d="m32.56317,15.55849c-0.90331,0.28786 -2.81119,1.14314 -3.37419,1.88765c-0.42879,0.56708 0.04072,1.34602 -0.5839,1.82305c-0.95107,0.72609 -3.3293,1.20151 -3.816,2.30965c-0.45936,1.04538 0.25505,2.38979 -0.17875,3.43148c-0.26305,0.63144 -1.13926,0.63478 -1.47694,1.18666c-0.38341,0.62661 -0.37291,3.46107 0.01803,4.08273c0.43201,0.68706 2.84916,1.93751 3.68023,1.99208c0.47404,0.0312 0.82558,-0.33967 1.31347,-0.19045c1.1918,0.36466 2.37178,1.23525 3.46279,1.82179c0.50939,0.27381 1.06726,0.65781 1.67169,0.46529c1.57223,-0.50099 2.83842,-1.8143 4.41805,-2.28673c0.48396,-0.14473 0.83931,0.23846 1.31347,0.19586c0.82032,-0.07358 3.52847,-1.42201 3.76919,-2.20095c0.27272,-0.88234 0.03224,-2.06555 0.05361,-2.983c0.00704,-0.30513 0.12574,-0.71619 -0.08454,-0.97894c-0.41983,-0.52471 -1.34655,-0.46541 -1.55097,-1.21337c-0.2738,-1.0014 0.475,-2.80269 -0.33816,-3.60662c-0.99705,-0.98574 -2.90851,-1.11021 -3.80704,-2.19082c-0.39476,-0.47485 0.00406,-1.15569 -0.31416,-1.65057c-0.19619,-0.30536 -0.64086,-0.42741 -0.95191,-0.59172c-0.81853,-0.43248 -2.25177,-1.6128 -3.22398,-1.30307l0.00001,0z" fill="currentColor"></path>
      <path stroke="null" id="svg_161" d="m32.32436,15.57933l0.11941,0.11514l-0.11941,-0.11514m1.07466,0l0.11941,0.11514l-0.11941,-0.11514z" fill="currentColor"></path>
      <path stroke="null" id="svg_162" d="m32.08555,15.69448l0.11941,0.11514l-0.11941,-0.11514z" fill="currentColor"></path>
      <path stroke="null" id="svg_163" d="m33.63783,15.69448l0.11941,0.11514l-0.11941,-0.11514z" fill="currentColor"></path>
      <path stroke="null" id="svg_164" d="m31.84673,15.80962l0.11941,0.11514l-0.11941,-0.11514m2.02991,0l0.11941,0.11514l-0.11941,-0.11514z" fill="currentColor"></path>
      <path stroke="null" id="svg_165" d="m31.2497,16.15505l0.11941,0.11514l-0.11941,-0.11514m3.22398,0l0.11941,0.11514l-0.11941,-0.11514m-3.46279,0.11514l0.11941,0.11514l-0.11941,-0.11514m3.70161,0l0.11941,0.11514l-0.11941,-0.11514z" fill="currentColor"></path>
      <path stroke="null" id="svg_166" d="m30.77207,16.38533l0.11941,0.11514l-0.11941,-0.11514z" fill="currentColor"></path>
      <path stroke="null" id="svg_167" d="m32.68258,16.38533l0.11941,0.11514l-0.11941,-0.11514z" fill="currentColor"></path>
      <path stroke="null" id="svg_168" d="m30.53326,17.6519c1.62727,1.3634 3.14577,1.36605 4.77627,0l-2.38813,-1.17664l-2.38813,1.17664l-0.00001,0z" fill=" #ffffff"></path>
      <path stroke="null" id="svg_169" d="m33.0408,16.38533l0.11941,0.11514l-0.11941,-0.11514z" fill="currentColor"></path>
      <path stroke="null" id="svg_170" d="m34.95131,16.38533l0.11941,0.11514l-0.11941,-0.11514z" fill="currentColor"></path>
      <path stroke="null" id="svg_171" d="m32.44377,16.50048l0.11941,0.11514l-0.11941,-0.11514m0.83585,0l0.11941,0.11514l-0.11941,-0.11514m-3.10457,0.23029l0.11941,0.11514l-0.11941,-0.11514m5.3733,0l0.11941,0.11514l-0.11941,-0.11514m-5.61212,0.11514l0.11941,0.11514l-0.11941,-0.11514z" fill="currentColor"></path>
      <path stroke="null" id="svg_172" d="m31.84673,16.8459l0.11941,0.11514l-0.11941,-0.11514m2.02991,0l0.11941,0.11514l-0.11941,-0.11514z" fill="currentColor"></path>
      <path stroke="null" id="svg_173" d="m35.78715,16.8459l0.11941,0.11514l-0.11941,-0.11514z" fill="currentColor"></path>
      <path stroke="null" id="svg_174" d="m29.69741,16.96105l0.11941,0.11514l-0.11941,-0.11514z" fill="currentColor"></path>
      <path stroke="null" id="svg_175" d="m31.60792,16.96105l0.11941,0.11514l-0.11941,-0.11514m2.50754,0l0.11941,0.11514l-0.11941,-0.11514z" fill="currentColor"></path>
      <path stroke="null" id="svg_176" d="m36.02597,16.96105l0.11941,0.11514l-0.11941,-0.11514m-6.56737,0.11514l0.11941,0.11514l-0.11941,-0.11514z" fill="currentColor"></path>
      <path stroke="null" id="svg_177" d="m31.3691,17.07619l0.11941,0.11514l-0.11941,-0.11514m2.98517,0l0.11941,0.11514l-0.11941,-0.11514z" fill="currentColor"></path>
      <path stroke="null" id="svg_178" d="m34.47368,17.19133l0.11941,0.11514l-0.11941,-0.11514m2.14932,0l0.11941,0.11514l-0.11941,-0.11514m-7.52262,0.11514l0.11941,0.11514l-0.11941,-0.11514z" fill="currentColor"></path>
      <path stroke="null" id="svg_179" d="m36.74241,17.30648l0.11941,0.11514l-0.11941,-0.11514z" fill="currentColor"></path>
      <path stroke="null" id="svg_180" d="m28.98097,17.42162l0.11941,0.11514l-0.11941,-0.11514m1.7911,0l0.11941,0.11514l-0.11941,-0.11514m4.17923,0l0.11941,0.11514l-0.11941,-0.11514z" fill="currentColor"></path>
      <path stroke="null" id="svg_181" d="m28.98097,17.53676l0.11941,0.11514l-0.11941,-0.11514m1.55229,0l0.11941,0.11514l-0.11941,-0.11514m4.65686,0l0.11941,0.11514l-0.11941,-0.11514z" fill="currentColor"></path>
      <path stroke="null" id="svg_182" d="m36.90158,17.61356l0.03988,0.07669l-0.03988,-0.07669m-6.48772,0.03834l0.11941,0.11514l-0.11941,-0.11514z" fill="currentColor"></path>
      <path stroke="null" id="svg_183" d="m35.30953,17.6519l0.11941,0.11514l-0.11941,-0.11514z" fill="currentColor"></path>
      <path stroke="null" id="svg_184" d="m30.65266,17.76705l0.11941,0.11514l-0.11941,-0.11514m4.41805,0l0.11941,0.11514l-0.11941,-0.11514m-4.17923,0.11514l0.11941,0.11514l-0.11941,-0.11514m3.94042,0l0.11941,0.11514l-0.11941,-0.11514z" fill="currentColor"></path>
      <path stroke="null" id="svg_185" d="m31.48851,18.22762l0.11941,0.11514l-0.11941,-0.11514m2.74635,0l0.11941,0.11514l-0.11941,-0.11514m-2.50754,0.11514l0.11941,0.11514l-0.11941,-0.11514m2.26873,0l0.11941,0.11514l-0.11941,-0.11514z" fill="currentColor"></path>
      <path stroke="null" id="svg_186" d="m29.93622,18.4579c0,0.71481 -0.22544,1.84827 0.072,2.50861c0.2861,0.6349 1.7868,1.20831 2.43554,1.40624c0,-0.70629 0.22962,-1.85368 -0.072,-2.50286c-0.29159,-0.6273 -1.80364,-1.15695 -2.43554,-1.412l0,0.00001z" fill=" #ffffff"></path>
      <path stroke="null" id="svg_187" d="m30.05563,18.4579l0.11941,0.11514l-0.11941,-0.11514m1.91051,0l0.11941,0.11514l-0.11941,-0.11514z" fill="currentColor"></path>
      <path stroke="null" id="svg_188" d="m33.75724,18.4579l0.11941,0.11514l-0.11941,-0.11514z" fill="currentColor"></path>
      <path stroke="null" id="svg_189" d="m35.66775,18.4579l0.11941,0.11514l-0.11941,-0.11514z" fill="currentColor"></path>
      <path stroke="null" id="svg_190" d="m35.78715,18.4579l-2.26538,1.31148l-0.12275,2.60338c1.83767,-0.64491 3.28022,-1.86474 2.38813,-3.91485l0,-0.00001z" fill=" #ffffff"></path>
      <path stroke="null" id="svg_191" d="m30.29444,18.57305l0.11941,0.11514l-0.11941,-0.11514z" fill="currentColor"></path>
      <path stroke="null" id="svg_192" d="m32.20495,18.57305l0.11941,0.11514l-0.11941,-0.11514m1.31347,0l0.11941,0.11514l-0.11941,-0.11514z" fill="currentColor"></path>
      <path stroke="null" id="svg_193" d="m35.42893,18.57305l0.11941,0.11514l-0.11941,-0.11514m-4.89568,0.11514l0.11941,0.11514l-0.11941,-0.11514z" fill="currentColor"></path>
      <path stroke="null" id="svg_194" d="m33.27961,18.68819l0.11941,0.11514l-0.11941,-0.11514z" fill="currentColor"></path>
      <path stroke="null" id="svg_195" d="m35.19012,18.68819l0.11941,0.11514l-0.11941,-0.11514z" fill="currentColor"></path>
      <path stroke="null" id="svg_196" d="m30.89148,18.91847l0.11941,0.11514l-0.11941,-0.11514z" fill="currentColor"></path>
      <path stroke="null" id="svg_197" d="m32.88163,18.95682l0.07952,0.03846l-0.07952,-0.03846z" fill="currentColor"></path>
      <path stroke="null" id="svg_198" d="m34.8319,18.91847l0.11941,0.11514l-0.11941,-0.11514m-3.70161,0.11514l0.11941,0.11514l-0.11941,-0.11514m3.46279,0l0.11941,0.11514l-0.11941,-0.11514z" fill="currentColor"></path>
      <path stroke="null" id="svg_199" d="m28.74216,19.14876l0.11941,0.11514l-0.11941,-0.11514m2.62695,0l0.11941,0.11514l-0.11941,-0.11514m2.98517,0l0.11941,0.11514l-0.11941,-0.11514m2.62695,0l0.11941,0.11514l-0.11941,-0.11514z" fill="currentColor"></path>
      <path stroke="null" id="svg_200" d="m28.50334,19.2639l0.11941,0.11514l-0.11941,-0.11514z" fill="currentColor"></path>
      <path stroke="null" id="svg_201" d="m31.60792,19.2639l0.11941,0.11514l-0.11941,-0.11514m2.50754,0l0.11941,0.11514l-0.11941,-0.11514z" fill="currentColor"></path>
      <path stroke="null" id="svg_202" d="m37.22003,19.2639l0.11941,0.11514l-0.11941,-0.11514m-8.9555,0.11514l0.11941,0.11514l-0.11941,-0.11514z" fill="currentColor"></path>
      <path stroke="null" id="svg_203" d="m31.84673,19.37904l0.11941,0.11514l-0.11941,-0.11514m2.02991,0l0.11941,0.11514l-0.11941,-0.11514z" fill="currentColor"></path>
      <path stroke="null" id="svg_204" d="m37.45885,19.37904l0.11941,0.11514l-0.11941,-0.11514m-5.49271,0.11514l0.11941,0.11514l-0.11941,-0.11514z" fill="currentColor"></path>
      <path stroke="null" id="svg_205" d="m27.90631,19.60933l0.11941,0.11514l-0.11941,-0.11514m9.91076,0l0.11941,0.11514l-0.11941,-0.11514m-10.14957,0.11514l0.11941,0.11514l-0.11941,-0.11514m10.38838,0l0.11941,0.11514l-0.11941,-0.11514z" fill="currentColor"></path>
      <path stroke="null" id="svg_206" d="m27.42868,19.83961l0.11941,0.11514l-0.11941,-0.11514m10.86601,0l0.11941,0.11514l-0.11941,-0.11514m-11.10482,0.11514l0.11941,0.11514l-0.11941,-0.11514m11.34364,0l0.11941,0.11514l-0.11941,-0.11514z" fill="currentColor"></path>
      <path stroke="null" id="svg_207" d="m26.83165,20.18504l0.11941,0.11514l-0.11941,-0.11514z" fill="currentColor"></path>
      <path stroke="null" id="svg_208" d="m25.63758,24.67561l1.31347,-0.49592l2.86576,1.43272l0.94128,0.59172l0.01576,1.00462l-0.07379,2.87396l-1.7191,1.38632c0.97257,0.54785 2.81179,1.98195 3.94042,1.98195c1.12863,0 2.96785,-1.4341 3.94042,-1.98195c-0.44634,-0.50202 -1.44446,-0.67623 -1.7191,-1.29075c-0.30341,-0.67923 -0.33864,-3.34478 0.05075,-3.98129c0.39559,-0.64664 2.91997,-1.97942 3.69826,-2.0173c0.44085,-0.02142 0.91716,0.33599 1.31347,0.49592c0,-0.74474 0.23762,-1.93635 -0.072,-2.62376c-0.35118,-0.7794 -2.47184,-1.58621 -3.27139,-1.86681c0,0.39839 0.07749,0.89754 -0.12275,1.26162c-0.40515,0.73645 -2.94815,2.09698 -3.81767,2.11609c-0.52599,0.01151 -1.11227,-0.44134 -1.55229,-0.68061c-1.39001,-0.75568 -2.38813,-1.01959 -2.38813,-2.6971c-0.79955,0.2806 -2.92021,1.08741 -3.27139,1.86681c-0.30962,0.6874 -0.072,1.87901 -0.072,2.62376l0.00002,0z" fill=" #ffffff"></path>
      <path stroke="null" id="svg_209" d="m38.89173,20.18504l0.11941,0.11514l-0.11941,-0.11514m-12.29889,0.11514l0.11941,0.11514l-0.11941,-0.11514z" fill="currentColor"></path>
      <path stroke="null" id="svg_210" d="m28.50334,20.30019l0.11941,0.11514l-0.11941,-0.11514m8.71669,0l0.11941,0.11514l-0.11941,-0.11514z" fill="currentColor"></path>
      <path stroke="null" id="svg_211" d="m39.13054,20.30019l0.11941,0.11514l-0.11941,-0.11514z" fill="currentColor"></path>
      <path stroke="null" id="svg_212" d="m26.35402,20.41533l0.11941,0.11514l-0.11941,-0.11514z" fill="currentColor"></path>
      <path stroke="null" id="svg_213" d="m28.26453,20.41533l0.11941,0.11514l-0.11941,-0.11514m9.19432,0l0.11941,0.11514l-0.11941,-0.11514z" fill="currentColor"></path>
      <path stroke="null" id="svg_214" d="m39.36935,20.41533l0.11941,0.11514l-0.11941,-0.11514m-13.25415,0.11514l0.11941,0.11514l-0.11941,-0.11514z" fill="currentColor"></path>
      <path stroke="null" id="svg_215" d="m28.02572,20.53047l0.11941,0.11514l-0.11941,-0.11514m9.67194,0l0.11941,0.11514l-0.11941,-0.11514z" fill="currentColor"></path>
      <path stroke="null" id="svg_216" d="m39.60817,20.53047l0.11941,0.11514l-0.11941,-0.11514z" fill="currentColor"></path>
      <path stroke="null" id="svg_217" d="m25.75699,20.76076l0.11941,0.11514l-0.11941,-0.11514m14.2094,0l0.11941,0.11514l-0.11941,-0.11514m-14.44821,0.11514l0.11941,0.11514l-0.11941,-0.11514z" fill="currentColor"></path>
      <path stroke="null" id="svg_218" d="m27.42868,20.8759l0.11941,0.11514l-0.11941,-0.11514m10.86601,0l0.11941,0.11514l-0.11941,-0.11514z" fill="currentColor"></path>
      <path stroke="null" id="svg_219" d="m40.2052,20.8759l0.11941,0.11514l-0.11941,-0.11514z" fill="currentColor"></path>
      <path stroke="null" id="svg_220" d="m25.27936,20.99104l0.11941,0.11514l-0.11941,-0.11514z" fill="currentColor"></path>
      <path stroke="null" id="svg_221" d="m27.18987,20.99104l0.11941,0.11514l-0.11941,-0.11514m11.34364,0l0.11941,0.11514l-0.11941,-0.11514z" fill="currentColor"></path>
      <path stroke="null" id="svg_222" d="m40.44402,20.99104l0.11941,0.11514l-0.11941,-0.11514m-15.40347,0.11514l0.11941,0.11514l-0.11941,-0.11514z" fill="currentColor"></path>
      <path stroke="null" id="svg_223" d="m26.95106,21.10618l0.11941,0.11514l-0.11941,-0.11514m2.98517,0l0.11941,0.11514l-0.11941,-0.11514m5.85093,0l0.11941,0.11514l-0.11941,-0.11514m2.98517,0l0.11941,0.11514l-0.11941,-0.11514z" fill="currentColor"></path>
      <path stroke="null" id="svg_224" d="m40.68283,21.10618l0.11941,0.11514l-0.11941,-0.11514z" fill="currentColor"></path>
      <path stroke="null" id="svg_225" d="m30.17504,21.22133l0.11941,0.11514l-0.11941,-0.11514m5.3733,0l0.11941,0.11514l-0.11941,-0.11514m-6.56737,0.11514l0.11941,0.11514l-0.11941,-0.11514m1.43288,0l0.11941,0.11514l-0.11941,-0.11514m4.89568,0l0.11941,0.11514l-0.11941,-0.11514m1.43288,0l0.11941,0.11514l-0.11941,-0.11514z" fill="currentColor"></path>
      <path stroke="null" id="svg_226" d="m24.68233,21.45161l0.11941,0.11514l-0.11941,-0.11514m1.67169,0l0.11941,0.11514l-0.11941,-0.11514m2.62695,0l0.11941,0.11514l-0.11941,-0.11514m1.67169,0l0.11941,0.11514l-0.11941,-0.11514m4.41805,0l0.11941,0.11514l-0.11941,-0.11514m1.67169,0l0.11941,0.11514l-0.11941,-0.11514m2.62695,0l0.11941,0.11514l-0.11941,-0.11514m1.67169,0l0.11941,0.11514l-0.11941,-0.11514z" fill="currentColor"></path>
      <path stroke="null" id="svg_227" d="m24.68233,21.56676l0.11941,0.11514l-0.11941,-0.11514m1.43288,0l0.11941,0.11514l-0.11941,-0.11514m13.49296,0l0.11941,0.11514l-0.11941,-0.11514m1.43288,0l0.11941,0.11514l-0.11941,-0.11514m-15.16465,0.11514l0.11941,0.11514l-0.11941,-0.11514m5.13449,0l0.11941,0.11514l-0.11941,-0.11514m8.8361,0l0.11941,0.11514l-0.11941,-0.11514m-14.2094,0.11514l0.11941,0.11514l-0.11941,-0.11514z" fill="currentColor"></path>
      <path stroke="null" id="svg_228" d="m29.33919,21.79704l0.11941,0.11514l-0.11941,-0.11514z" fill="currentColor"></path>
      <path stroke="null" id="svg_229" d="m31.2497,21.79704l0.11941,0.11514l-0.11941,-0.11514m3.22398,0l0.11941,0.11514l-0.11941,-0.11514z" fill="currentColor"></path>
      <path stroke="null" id="svg_230" d="m36.38419,21.79704l0.11941,0.11514l-0.11941,-0.11514z" fill="currentColor"></path>
      <path stroke="null" id="svg_231" d="m29.578,21.91218l0.11941,0.11514l-0.11941,-0.11514m1.91051,0l0.11941,0.11514l-0.11941,-0.11514m2.74635,0l0.11941,0.11514l-0.11941,-0.11514m1.91051,0l0.11941,0.11514l-0.11941,-0.11514m-6.32856,0.11514l0.11941,0.11514l-0.11941,-0.11514z" fill="currentColor"></path>
      <path stroke="null" id="svg_232" d="m31.72733,22.02733l0.11941,0.11514l-0.11941,-0.11514m2.26873,0l0.11941,0.11514l-0.11941,-0.11514z" fill="currentColor"></path>
      <path stroke="null" id="svg_233" d="m35.90656,22.02733l0.11941,0.11514l-0.11941,-0.11514m-5.85093,0.11514l0.11941,0.11514l-0.11941,-0.11514z" fill="currentColor"></path>
      <path stroke="null" id="svg_234" d="m33.75724,22.14247l0.11941,0.11514l-0.11941,-0.11514z" fill="currentColor"></path>
      <path stroke="null" id="svg_235" d="m35.66775,22.14247l0.11941,0.11514l-0.11941,-0.11514z" fill="currentColor"></path>
      <path stroke="null" id="svg_236" d="m30.17504,22.25761l0.11941,0.11514l-0.11941,-0.11514m0.23881,0.11514l0.11941,0.11514l-0.11941,-0.11514z" fill="currentColor"></path>
      <path stroke="null" id="svg_237" d="m32.32436,22.37275l0.11941,0.11514l-0.11941,-0.11514m1.07466,0l0.11941,0.11514l-0.11941,-0.11514z" fill="currentColor"></path>
      <path stroke="null" id="svg_238" d="m35.30953,22.37275l0.11941,0.11514l-0.11941,-0.11514z" fill="currentColor"></path>
      <path stroke="null" id="svg_239" d="m30.65266,22.4879l0.11941,0.11514l-0.11941,-0.11514z" fill="currentColor"></path>
      <path stroke="null" id="svg_240" d="m35.07071,22.4879l0.11941,0.11514l-0.11941,-0.11514z" fill="currentColor"></path>
      <path stroke="null" id="svg_241" d="m30.89148,22.60304l0.11941,0.11514l-0.11941,-0.11514m3.94042,0l0.11941,0.11514l-0.11941,-0.11514m-3.70161,0.11514l0.11941,0.11514l-0.11941,-0.11514m3.46279,0l0.11941,0.11514l-0.11941,-0.11514z" fill="currentColor"></path>
      <path stroke="null" id="svg_242" d="m31.48851,22.94847l0.11941,0.11514l-0.11941,-0.11514m2.74635,0l0.11941,0.11514l-0.11941,-0.11514m-2.50754,0.11514l0.11941,0.11514l-0.11941,-0.11514m2.26873,0l0.11941,0.11514l-0.11941,-0.11514z" fill="currentColor"></path>
      <path stroke="null" id="svg_243" d="m31.96614,23.17875l0.11941,0.11514l-0.11941,-0.11514m1.7911,0l0.11941,0.11514l-0.11941,-0.11514m-1.55229,0.11514l0.11941,0.11514l-0.11941,-0.11514m1.31347,0l0.11941,0.11514l-0.11941,-0.11514z" fill="currentColor"></path>
      <path stroke="null" id="svg_244" d="m32.56317,23.52418l0.11941,0.11514l-0.11941,-0.11514m-5.97034,0.57571l0.11941,0.11514l-0.11941,-0.11514m0.47763,0l0.11941,0.11514l-0.11941,-0.11514z" fill="currentColor"></path>
      <path stroke="null" id="svg_245" d="m38.65291,24.0999l0.11941,0.11514l-0.11941,-0.11514z" fill="currentColor"></path>
      <path stroke="null" id="svg_246" d="m39.13054,24.0999l0.11941,0.11514l-0.11941,-0.11514m-11.82126,0.11514l0.11941,0.11514l-0.11941,-0.11514m11.10482,0l0.11941,0.11514l-0.11941,-0.11514z" fill="currentColor"></path>
      <path stroke="null" id="svg_247" d="m26.23462,24.33018l0.11941,0.11514l-0.11941,-0.11514m13.25415,0l0.11941,0.11514l-0.11941,-0.11514m-13.49296,0.11514l0.11941,0.11514l-0.11941,-0.11514m1.67169,0l0.11941,0.11514l-0.11941,-0.11514m10.38838,0l0.11941,0.11514l-0.11941,-0.11514m1.67169,0l0.11941,0.11514l-0.11941,-0.11514m-13.97059,0.11514l0.11941,0.11514l-0.11941,-0.11514m2.14932,0l0.11941,0.11514l-0.11941,-0.11514m9.91076,0l0.11941,0.11514l-0.11941,-0.11514m2.14932,0l0.11941,0.11514l-0.11941,-0.11514z" fill="currentColor"></path>
      <path stroke="null" id="svg_248" d="m28.14512,24.67561l0.11941,0.11514l-0.11941,-0.11514m9.43313,0l0.11941,0.11514l-0.11941,-0.11514m-9.19432,0.11514l0.11941,0.11514l-0.11941,-0.11514m8.9555,0l0.11941,0.11514l-0.11941,-0.11514m-10.50779,0.23029l0.11941,0.11514l-0.11941,-0.11514z" fill="currentColor"></path>
      <path stroke="null" id="svg_249" d="m28.74216,25.02104l0.11941,0.11514l-0.11941,-0.11514m8.23906,0l0.11941,0.11514l-0.11941,-0.11514z" fill="currentColor"></path>
      <path stroke="null" id="svg_250" d="m38.89173,25.02104l0.11941,0.11514l-0.11941,-0.11514z" fill="currentColor"></path>
      <path stroke="null" id="svg_251" d="m26.59284,25.13618l0.11941,0.11514l-0.11941,-0.11514z" fill="currentColor"></path>
      <path stroke="null" id="svg_252" d="m24.56292,26.28761l0,0.23029l2.38813,1.04907l2.26873,-1.04907l0,-0.23029l-2.38813,-1.082l-2.26873,1.082z" fill=" #ffffff"></path>
      <path stroke="null" id="svg_253" d="m27.07046,25.13618l0.11941,0.11514l-0.11941,-0.11514z" fill="currentColor"></path>
      <path stroke="null" id="svg_254" d="m28.98097,25.13618l0.11941,0.11514l-0.11941,-0.11514m7.76144,0l0.11941,0.11514l-0.11941,-0.11514z" fill="currentColor"></path>
      <path stroke="null" id="svg_255" d="m38.65291,25.13618l0.11941,0.11514l-0.11941,-0.11514z" fill="currentColor"></path>
      <path stroke="null" id="svg_256" d="m36.623,26.28761l0,0.23029l2.26873,1.04907l2.38813,-1.04907l0,-0.23029l-2.26873,-1.082l-2.38813,1.082z" fill=" #ffffff"></path>
      <path stroke="null" id="svg_257" d="m39.13054,25.13618l0.11941,0.11514l-0.11941,-0.11514z" fill="currentColor"></path>
      <path stroke="null" id="svg_258" d="m24.44352,25.25132l0.11941,0.11514l-0.11941,-0.11514z" fill="currentColor"></path>
      <path stroke="null" id="svg_259" d="m26.35402,25.25132l0.11941,0.11514l-0.11941,-0.11514m0.95525,0l0.11941,0.11514l-0.11941,-0.11514z" fill="currentColor"></path>
      <path stroke="null" id="svg_260" d="m29.21978,25.25132l0.11941,0.11514l-0.11941,-0.11514z" fill="currentColor"></path>
      <path stroke="null" id="svg_261" d="m36.50359,25.25132l0.11941,0.11514l-0.11941,-0.11514m1.91051,0l0.11941,0.11514l-0.11941,-0.11514m0.95525,0l0.11941,0.11514l-0.11941,-0.11514z" fill="currentColor"></path>
      <path stroke="null" id="svg_262" d="m41.27986,25.25132l0.11941,0.11514l-0.11941,-0.11514z" fill="currentColor"></path>
      <path stroke="null" id="svg_263" d="m26.11521,25.36646l0.11941,0.11514l-0.11941,-0.11514m1.43288,0l0.11941,0.11514l-0.11941,-0.11514z" fill="currentColor"></path>
      <path stroke="null" id="svg_264" d="m29.4586,25.36646l0.11941,0.11514l-0.11941,-0.11514m6.80618,0l0.11941,0.11514l-0.11941,-0.11514z" fill="currentColor"></path>
      <path stroke="null" id="svg_265" d="m38.17529,25.36646l0.11941,0.11514l-0.11941,-0.11514m-14.08999,0.11514l0.11941,0.11514l-0.11941,-0.11514m3.70161,0l0.11941,0.11514l-0.11941,-0.11514m10.14957,0l0.11941,0.11514l-0.11941,-0.11514m3.70161,0l0.11941,0.11514l-0.11941,-0.11514m-17.7916,0.11514l0.11941,0.11514l-0.11941,-0.11514z" fill="currentColor"></path>
      <path stroke="null" id="svg_266" d="m25.75699,25.59675l0.11941,0.11514l-0.11941,-0.11514z" fill="currentColor"></path>
      <path stroke="null" id="svg_267" d="m29.81682,25.59675l0.11941,0.11514l-0.11941,-0.11514m6.08974,0l0.11941,0.11514l-0.11941,-0.11514z" fill="currentColor"></path>
      <path stroke="null" id="svg_268" d="m39.96639,25.59675l0.11941,0.11514l-0.11941,-0.11514z" fill="currentColor"></path>
      <path stroke="null" id="svg_269" d="m41.8769,25.59675l0.11941,0.11514l-0.11941,-0.11514m-18.26923,0.11514l0.11941,0.11514l-0.11941,-0.11514z" fill="currentColor"></path>
      <path stroke="null" id="svg_270" d="m25.51818,25.71189l0.11941,0.11514l-0.11941,-0.11514m2.62695,0l0.11941,0.11514l-0.11941,-0.11514z" fill="currentColor"></path>
      <path stroke="null" id="svg_271" d="m30.05563,25.71189l0.11941,0.11514l-0.11941,-0.11514m5.61212,0l0.11941,0.11514l-0.11941,-0.11514z" fill="currentColor"></path>
      <path stroke="null" id="svg_272" d="m37.57825,25.71189l0.11941,0.11514l-0.11941,-0.11514z" fill="currentColor"></path>
      <path stroke="null" id="svg_273" d="m40.2052,25.71189l0.11941,0.11514l-0.11941,-0.11514z" fill="currentColor"></path>
      <path stroke="null" id="svg_274" d="m42.11571,25.71189l0.11941,0.11514l-0.11941,-0.11514m-18.74685,0.11514l0.11941,0.11514l-0.11941,-0.11514z" fill="currentColor"></path>
      <path stroke="null" id="svg_275" d="m25.27936,25.82704l0.11941,0.11514l-0.11941,-0.11514m3.10457,0l0.11941,0.11514l-0.11941,-0.11514z" fill="currentColor"></path>
      <path stroke="null" id="svg_276" d="m30.29444,25.82704l0.11941,0.11514l-0.11941,-0.11514z" fill="currentColor"></path>
      <path stroke="null" id="svg_277" d="m35.42893,25.82704l0.11941,0.11514l-0.11941,-0.11514z" fill="currentColor"></path>
      <path stroke="null" id="svg_278" d="m37.33944,25.82704l0.11941,0.11514l-0.11941,-0.11514z" fill="currentColor"></path>
      <path stroke="null" id="svg_279" d="m40.44402,25.82704l0.11941,0.11514l-0.11941,-0.11514z" fill="currentColor"></path>
      <path stroke="null" id="svg_280" d="m42.35452,25.82704l0.11941,0.11514l-0.11941,-0.11514z" fill="currentColor"></path>
      <path stroke="null" id="svg_281" d="m25.04055,25.94218l0.11941,0.11514l-0.11941,-0.11514m3.5822,0l0.11941,0.11514l-0.11941,-0.11514m2.02991,0l0.11941,0.11514l-0.11941,-0.11514z" fill="currentColor"></path>
      <path stroke="null" id="svg_282" d="m35.19012,25.94218l0.11941,0.11514l-0.11941,-0.11514z" fill="currentColor"></path>
      <path stroke="null" id="svg_283" d="m37.10063,25.94218l0.11941,0.11514l-0.11941,-0.11514m3.5822,0l0.11941,0.11514l-0.11941,-0.11514z" fill="currentColor"></path>
      <path stroke="null" id="svg_284" d="m42.71274,25.94218l0.11941,0.11514l-0.11941,-0.11514z" fill="currentColor"></path>
      <path stroke="null" id="svg_285" d="m28.86156,26.05732l0.11941,0.11514l-0.11941,-0.11514z" fill="currentColor"></path>
      <path stroke="null" id="svg_286" d="m30.77207,26.05732l0.11941,0.11514l-0.11941,-0.11514m4.29864,0l0.11941,0.11514l-0.11941,-0.11514z" fill="currentColor"></path>
      <path stroke="null" id="svg_287" d="m36.86181,26.05732l0.11941,0.11514l-0.11941,-0.11514z" fill="currentColor"></path>
      <path stroke="null" id="svg_288" d="m41.04105,26.17246l0.11941,0.11514l-0.11941,-0.11514m-16.59753,0.11514l0.11941,0.11514l-0.11941,-0.11514m4.77627,0l0.11941,0.11514l-0.11941,-0.11514m7.28381,0l0.11941,0.11514l-0.11941,-0.11514m4.77627,0l0.11941,0.11514l-0.11941,-0.11514z" fill="currentColor"></path>
      <path stroke="null" id="svg_289" d="m24.44352,26.40275l0.11941,0.11514l-0.11941,-0.11514m4.77627,0l0.11941,0.11514l-0.11941,-0.11514m7.28381,0l0.11941,0.11514l-0.11941,-0.11514m4.77627,0l0.11941,0.11514l-0.11941,-0.11514m1.55229,0l0.11941,0.11514l-0.11941,-0.11514m-18.14982,0.11514l0.11941,0.11514l-0.11941,-0.11514m4.29864,0l0.11941,0.11514l-0.11941,-0.11514z" fill="currentColor"></path>
      <path stroke="null" id="svg_290" d="m30.77207,26.51789l0.11941,0.11514l-0.11941,-0.11514z" fill="currentColor"></path>
      <path stroke="null" id="svg_291" d="m36.74241,26.51789l0.11941,0.11514l-0.11941,-0.11514m4.29864,0l0.11941,0.11514l-0.11941,-0.11514z" fill="currentColor"></path>
      <path stroke="null" id="svg_292" d="m42.83215,26.51789l0.11941,0.11514l-0.11941,-0.11514z" fill="currentColor"></path>
      <path stroke="null" id="svg_293" d="m24.92114,26.63303l0.11941,0.11514l-0.11941,-0.11514z" fill="currentColor"></path>
      <path stroke="null" id="svg_294" d="m28.74216,26.63303l0.11941,0.11514l-0.11941,-0.11514m8.23906,0l0.11941,0.11514l-0.11941,-0.11514z" fill="currentColor"></path>
      <path stroke="null" id="svg_295" d="m40.80224,26.63303l0.11941,0.11514l-0.11941,-0.11514z" fill="currentColor"></path>
      <path stroke="null" id="svg_296" d="m25.15996,26.74818l0.11941,0.11514l-0.11941,-0.11514m3.34339,0l0.11941,0.11514l-0.11941,-0.11514m8.71669,0l0.11941,0.11514l-0.11941,-0.11514m3.34339,0l0.11941,0.11514l-0.11941,-0.11514m-15.16465,0.11514l0.11941,0.11514l-0.11941,-0.11514m14.92584,0l0.11941,0.11514l-0.11941,-0.11514z" fill="currentColor"></path>
      <path stroke="null" id="svg_297" d="m27.90631,27.09361l0.11941,0.11514l-0.11941,-0.11514m1.91051,0l0,0.46057l0.11941,0l-0.11941,-0.46057m6.08974,0l0,0.46057l0.11941,0l-0.11941,-0.46057m1.91051,0l0.11941,0.11514l-0.11941,-0.11514z" fill="currentColor"></path>
      <path stroke="null" id="svg_298" d="m23.96589,27.20875l0.12275,2.60338l2.38479,1.31148l-0.12275,-2.60338l-2.38479,-1.31148z" fill=" #ffffff"></path>
      <path stroke="null" id="svg_299" d="m24.0853,27.20875l0.11941,0.11514l-0.11941,-0.11514z" fill="currentColor"></path>
      <path stroke="null" id="svg_300" d="m25.9958,27.20875l0.11941,0.11514l-0.11941,-0.11514m1.67169,0l0.11941,0.11514l-0.11941,-0.11514z" fill="currentColor"></path>
      <path stroke="null" id="svg_301" d="m29.578,27.20875l0.11941,0.11514l-0.11941,-0.11514z" fill="currentColor"></path>
      <path stroke="null" id="svg_302" d="m29.69741,27.20875l-2.14598,1.22477l-0.12275,2.69008c1.68638,-0.85563 3.18959,-1.79864 2.26873,-3.91485m6.32856,0l0.12275,2.60338l2.26538,1.31148l-0.12275,-2.69008l-2.26538,-1.22477l0,-0.00001z" fill=" #ffffff"></path>
      <path stroke="null" id="svg_303" d="m36.14537,27.20875l0.11941,0.11514l-0.11941,-0.11514m1.91051,0l0.11941,0.11514l-0.11941,-0.11514m1.67169,0l0.11941,0.11514l-0.11941,-0.11514z" fill="currentColor"></path>
      <path stroke="null" id="svg_304" d="m41.63808,27.20875l0.11941,0.11514l-0.11941,-0.11514z" fill="currentColor"></path>
      <path stroke="null" id="svg_305" d="m41.75749,27.20875l-2.26538,1.31148l-0.12275,2.60338c1.79838,-0.72218 3.30124,-1.81649 2.38813,-3.91485l0,-0.00001z" fill=" #ffffff"></path>
      <path stroke="null" id="svg_306" d="m24.32411,27.32389l0.11941,0.11514l-0.11941,-0.11514z" fill="currentColor"></path>
      <path stroke="null" id="svg_307" d="m26.23462,27.32389l0.11941,0.11514l-0.11941,-0.11514m1.19407,0l0.11941,0.11514l-0.11941,-0.11514m1.91051,0l0.11941,0.11514l-0.11941,-0.11514m7.045,0l0.11941,0.11514l-0.11941,-0.11514z" fill="currentColor"></path>
      <path stroke="null" id="svg_308" d="m38.29469,27.32389l0.11941,0.11514l-0.11941,-0.11514z" fill="currentColor"></path>
      <path stroke="null" id="svg_309" d="m39.48876,27.32389l0.11941,0.11514l-0.11941,-0.11514z" fill="currentColor"></path>
      <path stroke="null" id="svg_310" d="m41.39927,27.32389l0.11941,0.11514l-0.11941,-0.11514z" fill="currentColor"></path>
      <path stroke="null" id="svg_311" d="m24.56292,27.43903l0.11941,0.11514l-0.11941,-0.11514m1.91051,0l0.11941,0.11514l-0.11941,-0.11514z" fill="currentColor"></path>
      <path stroke="null" id="svg_312" d="m27.18987,27.43903l0.11941,0.11514l-0.11941,-0.11514z" fill="currentColor"></path>
      <path stroke="null" id="svg_313" d="m29.10038,27.43903l0.11941,0.11514l-0.11941,-0.11514m7.52262,0l0.11941,0.11514l-0.11941,-0.11514z" fill="currentColor"></path>
      <path stroke="null" id="svg_314" d="m38.53351,27.43903l0.11941,0.11514l-0.11941,-0.11514z" fill="currentColor"></path>
      <path stroke="null" id="svg_315" d="m39.24995,27.43903l0.11941,0.11514l-0.11941,-0.11514m1.91051,0l0.11941,0.11514l-0.11941,-0.11514m-16.35872,0.11514l0.11941,0.11514l-0.11941,-0.11514z" fill="currentColor"></path>
      <path stroke="null" id="svg_316" d="m26.71224,27.55418l0.11941,0.11514l-0.11941,-0.11514z" fill="currentColor"></path>
      <path stroke="null" id="svg_317" d="m28.86156,27.55418l0.11941,0.11514l-0.11941,-0.11514z" fill="currentColor"></path>
      <path stroke="null" id="svg_318" d="m29.81682,27.55418l0.11941,0.11514l-0.11941,-0.11514m6.08974,0l0.11941,0.11514l-0.11941,-0.11514m3.10457,0l0.11941,0.11514l-0.11941,-0.11514z" fill="currentColor"></path>
      <path stroke="null" id="svg_319" d="m28.50334,27.78446l0.11941,0.11514l-0.11941,-0.11514m8.71669,0l0.11941,0.11514l-0.11941,-0.11514m-8.9555,0.11514l0.11941,0.11514l-0.11941,-0.11514m9.19432,0l0.11941,0.11514l-0.11941,-0.11514m-11.82126,0.11514l0.11941,0.11514l-0.11941,-0.11514z" fill="currentColor"></path>
      <path stroke="null" id="svg_320" d="m28.02572,28.01475l0.11941,0.11514l-0.11941,-0.11514z" fill="currentColor"></path>
      <path stroke="null" id="svg_321" d="m29.81682,28.01475l0.11941,0.11514l-0.11941,-0.11514m6.08974,0l0.11941,0.11514l-0.11941,-0.11514z" fill="currentColor"></path>
      <path stroke="null" id="svg_322" d="m37.69766,28.01475l0.11941,0.11514l-0.11941,-0.11514z" fill="currentColor"></path>
      <path stroke="null" id="svg_323" d="m40.08579,28.01475l0.11941,0.11514l-0.11941,-0.11514z" fill="currentColor"></path>
      <path stroke="null" id="svg_324" d="m29.81682,28.47532l0.11941,0.11514l-0.11941,-0.11514m6.08974,0l0.11941,0.11514l-0.11941,-0.11514z" fill="currentColor"></path>
      <path stroke="null" id="svg_325" d="m27.30928,28.7056l0.11941,0.11514l-0.11941,-0.11514m11.10482,0l0.11941,0.11514l-0.11941,-0.11514z" fill="currentColor"></path>
      <path stroke="null" id="svg_326" d="m27.30928,28.82075l0,0.34543l0.11941,0l-0.11941,-0.34543m11.10482,0l0,0.34543l0.11941,0l-0.11941,-0.34543z" fill="currentColor"></path>
      <path stroke="null" id="svg_327" d="m29.81682,28.93589l0.11941,0.11514l-0.11941,-0.11514m6.08974,0l0.11941,0.11514l-0.11941,-0.11514z" fill="currentColor"></path>
      <path stroke="null" id="svg_328" d="m29.81682,29.05103l0,0.34543l0.11941,0l-0.11941,-0.34543m6.08974,0l0,0.34543l0.11941,0l-0.11941,-0.34543z" fill="currentColor"></path>
      <path stroke="null" id="svg_329" d="m27.30928,29.16617l0.11941,0.11514l-0.11941,-0.11514m11.10482,0l0.11941,0.11514l-0.11941,-0.11514z" fill="currentColor"></path>
      <path stroke="null" id="svg_330" d="m27.30928,29.28132l0,0.34543l0.11941,0l-0.11941,-0.34543m11.10482,0l0,0.34543l0.11941,0l-0.11941,-0.34543z" fill="currentColor"></path>
      <path stroke="null" id="svg_331" d="m29.81682,29.39646l0.11941,0.11514l-0.11941,-0.11514m6.08974,0l0.11941,0.11514l-0.11941,-0.11514z" fill="currentColor"></path>
      <path stroke="null" id="svg_332" d="m29.81682,29.5116l0,0.34543l0.11941,0l-0.11941,-0.34543m6.08974,0l0,0.34543l0.11941,0l-0.11941,-0.34543z" fill="currentColor"></path>
      <path stroke="null" id="svg_333" d="m27.30928,29.62675l0.11941,0.11514l-0.11941,-0.11514m11.10482,0l0.11941,0.11514l-0.11941,-0.11514z" fill="currentColor"></path>
      <path stroke="null" id="svg_334" d="m27.30928,29.74189l0,0.34543l0.11941,0l-0.11941,-0.34543m11.10482,0l0,0.34543l0.11941,0l-0.11941,-0.34543m-8.9555,0.23029l0.11941,0.11514l-0.11941,-0.11514m6.80618,0l0.11941,0.11514l-0.11941,-0.11514m-11.82126,0.11514l0.11941,0.11514l-0.11941,-0.11514z" fill="currentColor"></path>
      <path stroke="null" id="svg_335" d="m27.30928,30.08732l0.11941,0.11514l-0.11941,-0.11514z" fill="currentColor"></path>
      <path stroke="null" id="svg_336" d="m29.21978,30.08732l0.11941,0.11514l-0.11941,-0.11514m7.28381,0l0.11941,0.11514l-0.11941,-0.11514z" fill="currentColor"></path>
      <path stroke="null" id="svg_337" d="m38.4141,30.08732l0.11941,0.11514l-0.11941,-0.11514z" fill="currentColor"></path>
      <path stroke="null" id="svg_338" d="m41.27986,30.08732l0.11941,0.11514l-0.11941,-0.11514m-18.26923,0.11514l0.11941,0.11514l-0.11941,-0.11514m1.67169,0l0.11941,0.11514l-0.11941,-0.11514m2.62695,0l0,0.34543l0.11941,0l-0.11941,-0.34543z" fill="currentColor"></path>
      <path stroke="null" id="svg_339" d="m28.98097,30.20246l0.11941,0.11514l-0.11941,-0.11514m7.76144,0l0.11941,0.11514l-0.11941,-0.11514z" fill="currentColor"></path>
      <path stroke="null" id="svg_340" d="m38.4141,30.20246l0,0.34543l0.11941,0l-0.11941,-0.34543m2.62695,0l0.11941,0.11514l-0.11941,-0.11514m1.67169,0l0.11941,0.11514l-0.11941,-0.11514z" fill="currentColor"></path>
      <path stroke="null" id="svg_341" d="m24.92114,30.3176l0.11941,0.11514l-0.11941,-0.11514m10.14957,0l0.11941,0.11514l-0.11941,-0.11514m5.73152,0l0.11941,0.11514l-0.11941,-0.11514z" fill="currentColor"></path>
      <path stroke="null" id="svg_342" d="m23.24945,30.43274l0.11941,0.11514l-0.11941,-0.11514z" fill="currentColor"></path>
      <path stroke="null" id="svg_343" d="m25.15996,30.43274l0.11941,0.11514l-0.11941,-0.11514m15.40347,0l0.11941,0.11514l-0.11941,-0.11514z" fill="currentColor"></path>
      <path stroke="null" id="svg_344" d="m42.47393,30.43274l0.11941,0.11514l-0.11941,-0.11514z" fill="currentColor"></path>
      <path stroke="null" id="svg_345" d="m23.36886,30.54789l0.11941,0.11514l-0.11941,-0.11514m3.94042,0l0.11941,0.11514l-0.11941,-0.11514z" fill="currentColor"></path>
      <path stroke="null" id="svg_346" d="m28.38394,30.54789l0.11941,0.11514l-0.11941,-0.11514m8.9555,0l0.11941,0.11514l-0.11941,-0.11514z" fill="currentColor"></path>
      <path stroke="null" id="svg_347" d="m38.4141,30.54789l0.11941,0.11514l-0.11941,-0.11514z" fill="currentColor"></path>
      <path stroke="null" id="svg_348" d="m25.51818,30.66303l0.11941,0.11514l-0.11941,-0.11514m1.7911,0l0,0.46057l0.11941,0l-0.11941,-0.46057m0.83585,0l0.11941,0.11514l-0.11941,-0.11514z" fill="currentColor"></path>
      <path stroke="null" id="svg_349" d="m30.05563,30.66303l0.11941,0.11514l-0.11941,-0.11514m5.61212,0l0.11941,0.11514l-0.11941,-0.11514z" fill="currentColor"></path>
      <path stroke="null" id="svg_350" d="m37.57825,30.66303l0.11941,0.11514l-0.11941,-0.11514m0.83585,0l0,0.46057l0.11941,0l-0.11941,-0.46057m1.7911,0l0.11941,0.11514l-0.11941,-0.11514z" fill="currentColor"></path>
      <path stroke="null" id="svg_351" d="m23.84648,30.77817l0.11941,0.11514l-0.11941,-0.11514z" fill="currentColor"></path>
      <path stroke="null" id="svg_352" d="m25.75699,30.77817l0.11941,0.11514l-0.11941,-0.11514z" fill="currentColor"></path>
      <path stroke="null" id="svg_353" d="m27.90631,30.77817l0.11941,0.11514l-0.11941,-0.11514z" fill="currentColor"></path>
      <path stroke="null" id="svg_354" d="m29.81682,30.77817l0.11941,0.11514l-0.11941,-0.11514m6.08974,0l0.11941,0.11514l-0.11941,-0.11514z" fill="currentColor"></path>
      <path stroke="null" id="svg_355" d="m37.81707,30.77817l0.11941,0.11514l-0.11941,-0.11514z" fill="currentColor"></path>
      <path stroke="null" id="svg_356" d="m39.96639,30.77817l0.11941,0.11514l-0.11941,-0.11514z" fill="currentColor"></path>
      <path stroke="null" id="svg_357" d="m41.8769,30.77817l0.11941,0.11514l-0.11941,-0.11514m-17.7916,0.11514l0.11941,0.11514l-0.11941,-0.11514z" fill="currentColor"></path>
      <path stroke="null" id="svg_358" d="m25.9958,30.89332l0.11941,0.11514l-0.11941,-0.11514z" fill="currentColor"></path>
      <path stroke="null" id="svg_359" d="m27.6675,30.89332l0.11941,0.11514l-0.11941,-0.11514z" fill="currentColor"></path>
      <path stroke="null" id="svg_360" d="m29.578,30.89332l0.11941,0.11514l-0.11941,-0.11514m6.56737,0l0.11941,0.11514l-0.11941,-0.11514m3.5822,0l0.11941,0.11514l-0.11941,-0.11514m1.91051,0l0.11941,0.11514l-0.11941,-0.11514m-17.31397,0.11514l0.11941,0.11514l-0.11941,-0.11514z" fill="currentColor"></path>
      <path stroke="null" id="svg_361" d="m26.23462,31.00846l0.11941,0.11514l-0.11941,-0.11514m13.25415,0l0.11941,0.11514l-0.11941,-0.11514z" fill="currentColor"></path>
      <path stroke="null" id="svg_362" d="m41.39927,31.00846l0.11941,0.11514l-0.11941,-0.11514z" fill="currentColor"></path>
      <path stroke="null" id="svg_363" d="m28.98097,31.23874l0.11941,0.11514l-0.11941,-0.11514m7.76144,0l0.11941,0.11514l-0.11941,-0.11514m-11.82126,0.11514l0.11941,0.11514l-0.11941,-0.11514m3.94042,0l0.11941,0.11514l-0.11941,-0.11514m8.00025,0l0.11941,0.11514l-0.11941,-0.11514m3.94042,0l0.11941,0.11514l-0.11941,-0.11514z" fill="currentColor"></path>
      <path stroke="null" id="svg_364" d="m25.15996,31.46903l0.11941,0.11514l-0.11941,-0.11514m15.40347,0l0.11941,0.11514l-0.11941,-0.11514m-15.16465,0.11514l0.11941,0.11514l-0.11941,-0.11514m3.82101,0l0.11941,0.11514l-0.11941,-0.11514m7.28381,0l0.11941,0.11514l-0.11941,-0.11514m3.82101,0l0.11941,0.11514l-0.11941,-0.11514m-10.86601,0.11514l0.11941,0.11514l-0.11941,-0.11514m6.80618,0l0.11941,0.11514l-0.11941,-0.11514m3.82101,0l0.11941,0.11514l-0.11941,-0.11514z" fill="currentColor"></path>
      <path stroke="null" id="svg_365" d="m29.69741,31.81446l0.11941,0.11514l-0.11941,-0.11514m6.32856,0l0.11941,0.11514l-0.11941,-0.11514m-10.03016,0.11514l0.11941,0.11514l-0.11941,-0.11514z" fill="currentColor"></path>
      <path stroke="null" id="svg_366" d="m27.6675,31.9296l0.11941,0.11514l-0.11941,-0.11514m0.35822,0l0.11941,0.11514l-0.11941,-0.11514z" fill="currentColor"></path>
      <path stroke="null" id="svg_367" d="m29.93622,31.9296l0.11941,0.11514l-0.11941,-0.11514m5.85093,0l0.11941,0.11514l-0.11941,-0.11514z" fill="currentColor"></path>
      <path stroke="null" id="svg_368" d="m37.69766,31.9296l0.11941,0.11514l-0.11941,-0.11514m0.35822,0l0.11941,0.11514l-0.11941,-0.11514z" fill="currentColor"></path>
      <path stroke="null" id="svg_369" d="m39.72757,31.9296l0.11941,0.11514l-0.11941,-0.11514z" fill="currentColor"></path>
      <path stroke="null" id="svg_370" d="m26.23462,32.04474l0.11941,0.11514l-0.11941,-0.11514m1.19407,0l0.11941,0.11514l-0.11941,-0.11514m10.86601,0l0.11941,0.11514l-0.11941,-0.11514m1.19407,0l0.11941,0.11514l-0.11941,-0.11514m-13.01533,0.11514l0.11941,0.11514l-0.11941,-0.11514m0.71644,0l0.11941,0.11514l-0.11941,-0.11514m3.10457,0l0.11941,0.11514l-0.11941,-0.11514m5.13449,0l0.11941,0.11514l-0.11941,-0.11514m3.82101,0l0.11941,0.11514l-0.11941,-0.11514z" fill="currentColor"></path>
      <path stroke="null" id="svg_371" d="m26.59284,32.27503l0.11941,0.11514l-0.11941,-0.11514z" fill="currentColor"></path>
      <path stroke="null" id="svg_372" d="m26.71224,32.27503l0.11941,0.11514l-0.11941,-0.11514m0.23881,0l0.11941,0.11514l-0.11941,-0.11514z" fill="currentColor"></path>
      <path stroke="null" id="svg_373" d="m28.62275,32.27503l0.11941,0.11514l-0.11941,-0.11514z" fill="currentColor"></path>
      <path stroke="null" id="svg_374" d="m30.53326,32.27503l0.11941,0.11514l-0.11941,-0.11514m4.65686,0l0.11941,0.11514l-0.11941,-0.11514z" fill="currentColor"></path>
      <path stroke="null" id="svg_375" d="m37.10063,32.27503l0.11941,0.11514l-0.11941,-0.11514m1.55229,0l0.11941,0.11514l-0.11941,-0.11514z" fill="currentColor"></path>
      <path stroke="null" id="svg_376" d="m38.77232,32.27503l0.11941,0.11514l-0.11941,-0.11514m0.23881,0l0.11941,0.11514l-0.11941,-0.11514m-10.14957,0.11514l0.11941,0.11514l-0.11941,-0.11514z" fill="currentColor"></path>
      <path stroke="null" id="svg_377" d="m30.77207,32.39017l0.11941,0.11514l-0.11941,-0.11514m4.17923,0l0.11941,0.11514l-0.11941,-0.11514z" fill="currentColor"></path>
      <path stroke="null" id="svg_378" d="m36.86181,32.39017l0.11941,0.11514l-0.11941,-0.11514m-7.76144,0.11514l0.11941,0.11514l-0.11941,-0.11514z" fill="currentColor"></path>
      <path stroke="null" id="svg_379" d="m31.01088,32.50531l0.11941,0.11514l-0.11941,-0.11514m3.70161,0l0.11941,0.11514l-0.11941,-0.11514z" fill="currentColor"></path>
      <path stroke="null" id="svg_380" d="m36.623,32.50531l0.11941,0.11514l-0.11941,-0.11514m-5.2539,0.23029l0.11941,0.11514l-0.11941,-0.11514m2.98517,0l0.11941,0.11514l-0.11941,-0.11514z" fill="currentColor"></path>
      <path stroke="null" id="svg_381" d="m29.69741,32.85074l0.11941,0.11514l-0.11941,-0.11514z" fill="currentColor"></path>
      <path stroke="null" id="svg_382" d="m31.60792,32.85074l0.11941,0.11514l-0.11941,-0.11514m2.50754,0l0.11941,0.11514l-0.11941,-0.11514z" fill="currentColor"></path>
      <path stroke="null" id="svg_383" d="m36.02597,32.85074l0.11941,0.11514l-0.11941,-0.11514z" fill="currentColor"></path>
      <path stroke="null" id="svg_384" d="m29.93622,32.96588l0.11941,0.11514l-0.11941,-0.11514z" fill="currentColor"></path>
      <path stroke="null" id="svg_385" d="m31.84673,32.96588l0.11941,0.11514l-0.11941,-0.11514m2.02991,0l0.11941,0.11514l-0.11941,-0.11514z" fill="currentColor"></path>
      <path stroke="null" id="svg_386" d="m35.78715,32.96588l0.11941,0.11514l-0.11941,-0.11514m-5.61212,0.11514l0.11941,0.11514l-0.11941,-0.11514z" fill="currentColor"></path>
      <path stroke="null" id="svg_387" d="m32.08555,33.08103l0.11941,0.11514l-0.11941,-0.11514m1.55229,0l0.11941,0.11514l-0.11941,-0.11514z" fill="currentColor"></path>
      <path stroke="null" id="svg_388" d="m35.54834,33.08103l0.11941,0.11514l-0.11941,-0.11514m-3.10457,0.23029l0.11941,0.11514l-0.11941,-0.11514m0.83585,0l0.11941,0.11514l-0.11941,-0.11514z" fill="currentColor"></path>
      <path stroke="null" id="svg_389" d="m30.77207,33.42645l0.11941,0.11514l-0.11941,-0.11514z" fill="currentColor"></path>
      <path stroke="null" id="svg_390" d="m32.68258,33.42645l0.11941,0.11514l-0.11941,-0.11514m0.35822,0l0.11941,0.11514l-0.11941,-0.11514z" fill="currentColor"></path>
      <path stroke="null" id="svg_391" d="m34.95131,33.42645l0.11941,0.11514l-0.11941,-0.11514z" fill="currentColor"></path>
      <path stroke="null" id="svg_392" d="m31.01088,33.5416l0.11941,0.11514l-0.11941,-0.11514m3.70161,0l0.11941,0.11514l-0.11941,-0.11514m-3.46279,0.11514l0.11941,0.11514l-0.11941,-0.11514m3.22398,0l0.11941,0.11514l-0.11941,-0.11514z" fill="currentColor"></path>
      <path stroke="null" id="svg_393" d="m31.84673,34.00217l0.11941,0.11514l-0.11941,-0.11514m2.02991,0l0.11941,0.11514l-0.11941,-0.11514z" fill="currentColor"></path>
      <path stroke="null" id="svg_394" d="m32.08555,34.11731l0.11941,0.11514l-0.11941,-0.11514m1.55229,0l0.11941,0.11514l-0.11941,-0.11514m-1.31347,0.11514l0.11941,0.11514l-0.11941,-0.11514m1.07466,0l0.11941,0.11514l-0.11941,-0.11514m-0.51739,0.26863l0.07952,0.03846l-0.07952,-0.03846m-18.11006,0.76766l0.11941,0.11514l-0.11941,-0.11514m36.18023,0l0.11941,0.11514l-0.11941,-0.11514z" fill="currentColor"></path>
      <path stroke="null" id="svg_395" d="m15.01039,35.38388l0.11941,0.11514l-0.11941,-0.11514m35.70261,0l0.11941,0.11514l-0.11941,-0.11514m-35.46379,0.11514l0.11941,0.11514l-0.11941,-0.11514m35.22498,0l0.11941,0.11514l-0.11941,-0.11514z" fill="currentColor"></path>
      <path stroke="null" id="svg_396" d="m15.60742,35.72931l0.11941,0.11514l-0.11941,-0.11514m34.50854,0l0.11941,0.11514l-0.11941,-0.11514z" fill="currentColor"></path>
      <path stroke="null" id="svg_397" d="m15.84623,35.84445l0.11941,0.11514l-0.11941,-0.11514m34.03091,0l0.11941,0.11514l-0.11941,-0.11514m-33.7921,0.11514l0.11941,0.11514l-0.11941,-0.11514m33.55329,0l0.11941,0.11514l-0.11941,-0.11514z" fill="currentColor"></path>
      <path stroke="null" id="svg_398" d="m16.20445,36.07474l0.11941,0.11514l-0.11941,-0.11514m33.31447,0l0.11941,0.11514l-0.11941,-0.11514z" fill="currentColor"></path>
      <path stroke="null" id="svg_399" d="m12.74166,36.18988l0.11941,0.11514l-0.11941,-0.11514z" fill="currentColor"></path>
      <path stroke="null" id="svg_400" d="m16.44327,36.18988l0.11941,0.11514l-0.11941,-0.11514m32.83685,0l0.11941,0.11514l-0.11941,-0.11514z" fill="currentColor"></path>
      <path stroke="null" id="svg_401" d="m52.98172,36.18988l0.11941,0.11514l-0.11941,-0.11514z" fill="currentColor"></path>
      <path stroke="null" id="svg_402" d="m12.98047,36.30502l0.11941,0.11514l-0.11941,-0.11514z" fill="currentColor"></path>
      <path stroke="null" id="svg_403" d="m16.68208,36.30502l0.11941,0.11514l-0.11941,-0.11514m32.35922,0l0.11941,0.11514l-0.11941,-0.11514z" fill="currentColor"></path>
      <path stroke="null" id="svg_404" d="m52.74291,36.30502l0.11941,0.11514l-0.11941,-0.11514z" fill="currentColor"></path>
      <path stroke="null" id="svg_405" d="m13.33869,36.53531l0.11941,0.11514l-0.11941,-0.11514z" fill="currentColor"></path>
      <path stroke="null" id="svg_406" d="m17.0403,36.53531l0.11941,0.11514l-0.11941,-0.11514m31.64278,0l0.11941,0.11514l-0.11941,-0.11514z" fill="currentColor"></path>
      <path stroke="null" id="svg_407" d="m52.38469,36.53531l0.11941,0.11514l-0.11941,-0.11514z" fill="currentColor"></path>
      <path stroke="null" id="svg_408" d="m13.5775,36.65045l0.11941,0.11514l-0.11941,-0.11514z" fill="currentColor"></path>
      <path stroke="null" id="svg_409" d="m17.27911,36.65045l0.11941,0.11514l-0.11941,-0.11514m31.16515,0l0.11941,0.11514l-0.11941,-0.11514m3.70161,0l0.11941,0.11514l-0.11941,-0.11514z" fill="currentColor"></path>
      <path stroke="null" id="svg_410" d="m13.81632,36.76559l0.11941,0.11514l-0.11941,-0.11514z" fill="currentColor"></path>
      <path stroke="null" id="svg_411" d="m17.51793,36.76559l0.11941,0.11514l-0.11941,-0.11514m30.68753,0l0.11941,0.11514l-0.11941,-0.11514z" fill="currentColor"></path>
      <path stroke="null" id="svg_412" d="m51.90706,36.76559l0.11941,0.11514l-0.11941,-0.11514z" fill="currentColor"></path>
      <path stroke="null" id="svg_413" d="m14.17454,36.99588l0.11941,0.11514l-0.11941,-0.11514z" fill="currentColor"></path>
      <path stroke="null" id="svg_414" d="m17.87615,36.99588l0.11941,0.11514l-0.11941,-0.11514m29.97108,0l0.11941,0.11514l-0.11941,-0.11514z" fill="currentColor"></path>
      <path stroke="null" id="svg_415" d="m51.54884,36.99588l0.11941,0.11514l-0.11941,-0.11514z" fill="currentColor"></path>
      <path stroke="null" id="svg_416" d="m14.41335,37.11102l0.11941,0.11514l-0.11941,-0.11514z" fill="currentColor"></path>
      <path stroke="null" id="svg_417" d="m18.11496,37.11102l0.11941,0.11514l-0.11941,-0.11514m29.49346,0l0.11941,0.11514l-0.11941,-0.11514z" fill="currentColor"></path>
      <path stroke="null" id="svg_418" d="m51.31003,37.11102l0.11941,0.11514l-0.11941,-0.11514z" fill="currentColor"></path>
      <path stroke="null" id="svg_419" d="m47.3696,37.22616l0.11941,0.11514l-0.11941,-0.11514z" fill="currentColor"></path>
      <path stroke="null" id="svg_420" d="m51.07121,37.22616l0.11941,0.11514l-0.11941,-0.11514z" fill="currentColor"></path>
      <path stroke="null" id="svg_421" d="m14.77157,37.34131l0.11941,0.11514l-0.11941,-0.11514z" fill="currentColor"></path>
      <path stroke="null" id="svg_422" d="m18.47318,37.34131l0.11941,0.11514l-0.11941,-0.11514m28.77702,0l0.11941,0.11514l-0.11941,-0.11514z" fill="currentColor"></path>
      <path stroke="null" id="svg_423" d="m15.01039,37.45645l0.11941,0.11514l-0.11941,-0.11514z" fill="currentColor"></path>
      <path stroke="null" id="svg_424" d="m18.71199,37.45645l0.11941,0.11514l-0.11941,-0.11514m28.29939,0l0.11941,0.11514l-0.11941,-0.11514z" fill="currentColor"></path>
      <path stroke="null" id="svg_425" d="m50.71299,37.45645l0.11941,0.11514l-0.11941,-0.11514z" fill="currentColor"></path>
      <path stroke="null" id="svg_426" d="m15.2492,37.57159l0.11941,0.11514l-0.11941,-0.11514z" fill="currentColor"></path>
      <path stroke="null" id="svg_427" d="m18.95081,37.57159l0.11941,0.11514l-0.11941,-0.11514m27.82176,0l0.11941,0.11514l-0.11941,-0.11514z" fill="currentColor"></path>
      <path stroke="null" id="svg_428" d="m50.47418,37.57159l0.11941,0.11514l-0.11941,-0.11514m-0.23881,0.11514l0.11941,0.11514l-0.11941,-0.11514z" fill="currentColor"></path>
      <path stroke="null" id="svg_429" d="m15.60742,37.80188l0.11941,0.11514l-0.11941,-0.11514z" fill="currentColor"></path>
      <path stroke="null" id="svg_430" d="m19.30903,37.80188l0.11941,0.11514l-0.11941,-0.11514m27.10532,0l0.11941,0.11514l-0.11941,-0.11514z" fill="currentColor"></path>
      <path stroke="null" id="svg_431" d="m50.11596,37.80188l0.11941,0.11514l-0.11941,-0.11514m-34.26973,0.11514l0.11941,0.11514l-0.11941,-0.11514m3.70161,0l0.11941,0.11514l-0.11941,-0.11514z" fill="currentColor"></path>
      <path stroke="null" id="svg_432" d="m46.17554,37.91702l0.11941,0.11514l-0.11941,-0.11514z" fill="currentColor"></path>
      <path stroke="null" id="svg_433" d="m49.87715,37.91702l0.11941,0.11514l-0.11941,-0.11514z" fill="currentColor"></path>
      <path stroke="null" id="svg_434" d="m16.08505,38.03216l0.11941,0.11514l-0.11941,-0.11514z" fill="currentColor"></path>
      <path stroke="null" id="svg_435" d="m19.78665,38.03216l0.11941,0.11514l-0.11941,-0.11514m26.15007,0l0.11941,0.11514l-0.11941,-0.11514z" fill="currentColor"></path>
      <path stroke="null" id="svg_436" d="m49.63833,38.03216l0.11941,0.11514l-0.11941,-0.11514m-29.73227,0.11514l0.11941,0.11514l-0.11941,-0.11514z" fill="currentColor"></path>
      <path stroke="null" id="svg_437" d="m16.44327,38.26245l0.11941,0.11514l-0.11941,-0.11514z" fill="currentColor"></path>
      <path stroke="null" id="svg_438" d="m20.14487,38.26245l0.11941,0.11514l-0.11941,-0.11514m25.43363,0l0.11941,0.11514l-0.11941,-0.11514z" fill="currentColor"></path>
      <path stroke="null" id="svg_439" d="m49.28011,38.26245l0.11941,0.11514l-0.11941,-0.11514z" fill="currentColor"></path>
      <path stroke="null" id="svg_440" d="m16.68208,38.37759l0.11941,0.11514l-0.11941,-0.11514z" fill="currentColor"></path>
      <path stroke="null" id="svg_441" d="m20.38369,38.37759l0.11941,0.11514l-0.11941,-0.11514m24.956,0l0.11941,0.11514l-0.11941,-0.11514m3.70161,0l0.11941,0.11514l-0.11941,-0.11514z" fill="currentColor"></path>
      <path stroke="null" id="svg_442" d="m16.92089,38.49273l0.11941,0.11514l-0.11941,-0.11514z" fill="currentColor"></path>
      <path stroke="null" id="svg_443" d="m45.10088,38.49273l0.11941,0.11514l-0.11941,-0.11514z" fill="currentColor"></path>
      <path stroke="null" id="svg_444" d="m48.80248,38.49273l0.11941,0.11514l-0.11941,-0.11514m-28.06058,0.11514l0.11941,0.11514l-0.11941,-0.11514z" fill="currentColor"></path>
      <path stroke="null" id="svg_445" d="m17.27911,38.72302l0.11941,0.11514l-0.11941,-0.11514z" fill="currentColor"></path>
      <path stroke="null" id="svg_446" d="m20.98072,38.72302l0.11941,0.11514l-0.11941,-0.11514m23.76194,0l0.11941,0.11514l-0.11941,-0.11514z" fill="currentColor"></path>
      <path stroke="null" id="svg_447" d="m48.44426,38.72302l0.11941,0.11514l-0.11941,-0.11514z" fill="currentColor"></path>
      <path stroke="null" id="svg_448" d="m17.51793,38.83816l0.11941,0.11514l-0.11941,-0.11514z" fill="currentColor"></path>
      <path stroke="null" id="svg_449" d="m21.21953,38.83816l0.11941,0.11514l-0.11941,-0.11514m23.28431,0l0.11941,0.11514l-0.11941,-0.11514z" fill="currentColor"></path>
      <path stroke="null" id="svg_450" d="m48.20545,38.83816l0.11941,0.11514l-0.11941,-0.11514m-30.44871,0.11514l0.11941,0.11514l-0.11941,-0.11514m30.2099,0l0.11941,0.11514l-0.11941,-0.11514z" fill="currentColor"></path>
      <path stroke="null" id="svg_451" d="m17.87615,39.06845l0.11941,0.11514l-0.11941,-0.11514z" fill="currentColor"></path>
      <path stroke="null" id="svg_452" d="m21.57775,39.06845l0.11941,0.11514l-0.11941,-0.11514m22.56787,0l0.11941,0.11514l-0.11941,-0.11514z" fill="currentColor"></path>
      <path stroke="null" id="svg_453" d="m18.11496,39.18359l0.11941,0.11514l-0.11941,-0.11514m3.70161,0l0.11941,0.11514l-0.11941,-0.11514z" fill="currentColor"></path>
      <path stroke="null" id="svg_454" d="m43.90681,39.18359l0.11941,0.11514l-0.11941,-0.11514z" fill="currentColor"></path>
      <path stroke="null" id="svg_455" d="m47.60842,39.18359l0.11941,0.11514l-0.11941,-0.11514z" fill="currentColor"></path>
      <path stroke="null" id="svg_456" d="m18.35377,39.29873l0.11941,0.11514l-0.11941,-0.11514z" fill="currentColor"></path>
      <path stroke="null" id="svg_457" d="m22.05538,39.29873l0.11941,0.11514l-0.11941,-0.11514m21.61261,0l0.11941,0.11514l-0.11941,-0.11514z" fill="currentColor"></path>
      <path stroke="null" id="svg_458" d="m47.3696,39.29873l0.11941,0.11514l-0.11941,-0.11514z" fill="currentColor"></path>
      <path stroke="null" id="svg_459" d="m18.71199,39.52902l0.11941,0.11514l-0.11941,-0.11514z" fill="currentColor"></path>
      <path stroke="null" id="svg_460" d="m22.4136,39.52902l0.11941,0.11514l-0.11941,-0.11514m20.89617,0l0.11941,0.11514l-0.11941,-0.11514z" fill="currentColor"></path>
      <path stroke="null" id="svg_461" d="m47.01138,39.52902l0.11941,0.11514l-0.11941,-0.11514m-28.06058,0.11514l0.11941,0.11514l-0.11941,-0.11514z" fill="currentColor"></path>
      <path stroke="null" id="svg_462" d="m22.65241,39.64416l0.11941,0.11514l-0.11941,-0.11514z" fill="currentColor"></path>
      <path stroke="null" id="svg_463" d="m43.07096,39.64416l0.11941,0.11514l-0.11941,-0.11514m3.70161,0l0.11941,0.11514l-0.11941,-0.11514z" fill="currentColor"></path>
      <path stroke="null" id="svg_464" d="m19.18962,39.7593l0.11941,0.11514l-0.11941,-0.11514z" fill="currentColor"></path>
      <path stroke="null" id="svg_465" d="m22.89123,39.7593l0.11941,0.11514l-0.11941,-0.11514m19.94092,0l0.11941,0.11514l-0.11941,-0.11514z" fill="currentColor"></path>
      <path stroke="null" id="svg_466" d="m46.53376,39.7593l0.11941,0.11514l-0.11941,-0.11514z" fill="currentColor"></path>
      <path stroke="null" id="svg_467" d="m19.54784,39.98959l0.11941,0.11514l-0.11941,-0.11514z" fill="currentColor"></path>
      <path stroke="null" id="svg_468" d="m23.24945,39.98959l0.11941,0.11514l-0.11941,-0.11514m19.22448,0l0.11941,0.11514l-0.11941,-0.11514z" fill="currentColor"></path>
      <path stroke="null" id="svg_469" d="m46.17554,39.98959l0.11941,0.11514l-0.11941,-0.11514z" fill="currentColor"></path>
      <path stroke="null" id="svg_470" d="m19.78665,40.10473l0.11941,0.11514l-0.11941,-0.11514z" fill="currentColor"></path>
      <path stroke="null" id="svg_471" d="m23.48826,40.10473l0.11941,0.11514l-0.11941,-0.11514m18.74685,0l0.11941,0.11514l-0.11941,-0.11514z" fill="currentColor"></path>
      <path stroke="null" id="svg_472" d="m45.93672,40.10473l0.11941,0.11514l-0.11941,-0.11514m-25.91126,0.11514l0.11941,0.11514l-0.11941,-0.11514z" fill="currentColor"></path>
      <path stroke="null" id="svg_473" d="m23.72708,40.21987l0.11941,0.11514l-0.11941,-0.11514z" fill="currentColor"></path>
      <path stroke="null" id="svg_474" d="m45.69791,40.21987l0.11941,0.11514l-0.11941,-0.11514m-3.82101,0.11514l0.11941,0.11514l-0.11941,-0.11514z" fill="currentColor"></path>
      <path stroke="null" id="svg_475" d="m20.38369,40.45016l0.11941,0.11514l-0.11941,-0.11514z" fill="currentColor"></path>
      <path stroke="null" id="svg_476" d="m24.0853,40.45016l0.11941,0.11514l-0.11941,-0.11514m17.55279,0l0.11941,0.11514l-0.11941,-0.11514z" fill="currentColor"></path>
      <path stroke="null" id="svg_477" d="m45.33969,40.45016l0.11941,0.11514l-0.11941,-0.11514z" fill="currentColor"></path>
      <path stroke="null" id="svg_478" d="m20.6225,40.5653l0.11941,0.11514l-0.11941,-0.11514z" fill="currentColor"></path>
      <path stroke="null" id="svg_479" d="m24.32411,40.5653l0.11941,0.11514l-0.11941,-0.11514m17.07516,0l0.11941,0.11514l-0.11941,-0.11514z" fill="currentColor"></path>
      <path stroke="null" id="svg_480" d="m45.10088,40.5653l0.11941,0.11514l-0.11941,-0.11514m-0.23881,0.11514l0.11941,0.11514l-0.11941,-0.11514z" fill="currentColor"></path>
      <path stroke="null" id="svg_481" d="m20.98072,40.79559l0.11941,0.11514l-0.11941,-0.11514z" fill="currentColor"></path>
      <path stroke="null" id="svg_482" d="m24.68233,40.79559l0.11941,0.11514l-0.11941,-0.11514m16.35872,0l0.11941,0.11514l-0.11941,-0.11514z" fill="currentColor"></path>
      <path stroke="null" id="svg_483" d="m44.74266,40.79559l0.11941,0.11514l-0.11941,-0.11514m-23.52312,0.11514l0.11941,0.11514l-0.11941,-0.11514z" fill="currentColor"></path>
      <path stroke="null" id="svg_484" d="m24.92114,40.91073l0.11941,0.11514l-0.11941,-0.11514z" fill="currentColor"></path>
      <path stroke="null" id="svg_485" d="m40.80224,40.91073l0.11941,0.11514l-0.11941,-0.11514m3.70161,0l0.11941,0.11514l-0.11941,-0.11514z" fill="currentColor"></path>
      <path stroke="null" id="svg_486" d="m21.45835,41.02587l0.11941,0.11514l-0.11941,-0.11514z" fill="currentColor"></path>
      <path stroke="null" id="svg_487" d="m25.15996,41.02587l0.11941,0.11514l-0.11941,-0.11514m15.40347,0l0.11941,0.11514l-0.11941,-0.11514z" fill="currentColor"></path>
      <path stroke="null" id="svg_488" d="m44.26503,41.02587l0.11941,0.11514l-0.11941,-0.11514z" fill="currentColor"></path>
      <path stroke="null" id="svg_489" d="m21.81657,41.25616l0.11941,0.11514l-0.11941,-0.11514z" fill="currentColor"></path>
      <path stroke="null" id="svg_490" d="m25.51818,41.25616l0.11941,0.11514l-0.11941,-0.11514m14.68703,0l0.11941,0.11514l-0.11941,-0.11514z" fill="currentColor"></path>
      <path stroke="null" id="svg_491" d="m43.90681,41.25616l0.11941,0.11514l-0.11941,-0.11514z" fill="currentColor"></path>
      <path stroke="null" id="svg_492" d="m22.05538,41.3713l0.11941,0.11514l-0.11941,-0.11514z" fill="currentColor"></path>
      <path stroke="null" id="svg_493" d="m25.75699,41.3713l0.11941,0.11514l-0.11941,-0.11514m14.2094,0l0.11941,0.11514l-0.11941,-0.11514m3.70161,0l0.11941,0.11514l-0.11941,-0.11514m-17.67219,0.11514l0.11941,0.11514l-0.11941,-0.11514m13.73177,0l0.11941,0.11514l-0.11941,-0.11514z" fill="currentColor"></path>
      <path stroke="null" id="svg_494" d="m43.42918,41.48644l0.11941,0.11514l-0.11941,-0.11514z" fill="currentColor"></path>
      <path stroke="null" id="svg_495" d="m22.4136,41.60159l0.11941,0.11514l-0.11941,-0.11514z" fill="currentColor"></path>
      <path stroke="null" id="svg_496" d="m26.11521,41.60159l0.11941,0.11514l-0.11941,-0.11514m13.49296,0l0.11941,0.11514l-0.11941,-0.11514m-16.95575,0.11514l0.11941,0.11514l-0.11941,-0.11514m3.70161,0l0.11941,0.11514l-0.11941,-0.11514m13.01533,0l0.11941,0.11514l-0.11941,-0.11514z" fill="currentColor"></path>
      <path stroke="null" id="svg_497" d="m43.07096,41.71673l0.11941,0.11514l-0.11941,-0.11514z" fill="currentColor"></path>
      <path stroke="null" id="svg_498" d="m22.89123,41.83187l0.11941,0.11514l-0.11941,-0.11514z" fill="currentColor"></path>
      <path stroke="null" id="svg_499" d="m26.59284,41.83187l0.11941,0.11514l-0.11941,-0.11514m12.5377,0l0.11941,0.11514l-0.11941,-0.11514z" fill="currentColor"></path>
      <path stroke="null" id="svg_500" d="m42.83215,41.83187l0.11941,0.11514l-0.11941,-0.11514m-0.23881,0.11514l0.11941,0.11514l-0.11941,-0.11514z" fill="currentColor"></path>
      <path stroke="null" id="svg_501" d="m23.24945,42.06216l0.11941,0.11514l-0.11941,-0.11514z" fill="currentColor"></path>
      <path stroke="null" id="svg_502" d="m26.95106,42.06216l0.11941,0.11514l-0.11941,-0.11514m11.82126,0l0.11941,0.11514l-0.11941,-0.11514m-15.28406,0.11514l0.11941,0.11514l-0.11941,-0.11514m3.70161,0l0.11941,0.11514l-0.11941,-0.11514z" fill="currentColor"></path>
      <path stroke="null" id="svg_503" d="m38.53351,42.1773l0.11941,0.11514l-0.11941,-0.11514m3.70161,0l0.11941,0.11514l-0.11941,-0.11514z" fill="currentColor"></path>
      <path stroke="null" id="svg_504" d="m23.72708,42.29244l0.11941,0.11514l-0.11941,-0.11514z" fill="currentColor"></path>
      <path stroke="null" id="svg_505" d="m27.42868,42.29244l0.11941,0.11514l-0.11941,-0.11514m10.86601,0l0.11941,0.11514l-0.11941,-0.11514z" fill="currentColor"></path>
      <path stroke="null" id="svg_506" d="m41.9963,42.29244l0.11941,0.11514l-0.11941,-0.11514z" fill="currentColor"></path>
      <path stroke="null" id="svg_507" d="m23.84648,42.40759l0.11941,0.11514l-0.11941,-0.11514m0.23881,0.11514l0.11941,0.11514l-0.11941,-0.11514z" fill="currentColor"></path>
      <path stroke="null" id="svg_508" d="m27.7869,42.52273l0.11941,0.11514l-0.11941,-0.11514m10.14957,0l0.11941,0.11514l-0.11941,-0.11514z" fill="currentColor"></path>
      <path stroke="null" id="svg_509" d="m41.63808,42.52273l0.11941,0.11514l-0.11941,-0.11514z" fill="currentColor"></path>
      <path stroke="null" id="svg_510" d="m24.32411,42.63787l0.11941,0.11514l-0.11941,-0.11514z" fill="currentColor"></path>
      <path stroke="null" id="svg_511" d="m28.02572,42.63787l0.11941,0.11514l-0.11941,-0.11514m9.67194,0l0.11941,0.11514l-0.11941,-0.11514m3.70161,0l0.11941,0.11514l-0.11941,-0.11514m-13.13474,0.11514l0.11941,0.11514l-0.11941,-0.11514m9.19432,0l0.11941,0.11514l-0.11941,-0.11514z" fill="currentColor"></path>
      <path stroke="null" id="svg_512" d="m41.16046,42.75301l0.11941,0.11514l-0.11941,-0.11514z" fill="currentColor"></path>
      <path stroke="null" id="svg_513" d="m24.68233,42.86816l0.11941,0.11514l-0.11941,-0.11514z" fill="currentColor"></path>
      <path stroke="null" id="svg_514" d="m37.33944,42.86816l0.11941,0.11514l-0.11941,-0.11514z" fill="currentColor"></path>
      <path stroke="null" id="svg_515" d="m24.92114,42.9833l0.11941,0.11514l-0.11941,-0.11514z" fill="currentColor"></path>
      <path stroke="null" id="svg_516" d="m28.62275,42.9833l0.11941,0.11514l-0.11941,-0.11514m8.47788,0l0.11941,0.11514l-0.11941,-0.11514z" fill="currentColor"></path>
      <path stroke="null" id="svg_517" d="m40.80224,42.9833l0.11941,0.11514l-0.11941,-0.11514z" fill="currentColor"></path>
      <path stroke="null" id="svg_518" d="m25.15996,43.09844l0.11941,0.11514l-0.11941,-0.11514z" fill="currentColor"></path>
      <path stroke="null" id="svg_519" d="m22.79762,39.19746l0.0822,0.1046l-0.0822,-0.1046m5.50771,0l0.0822,0.1046l-0.0822,-0.1046z" fill="currentColor"></path>
      <path stroke="null" id="svg_520" d="m30.85368,39.19746l0.0822,0.1046l-0.0822,-0.1046m-0.16441,0.1046l0.0822,0.1046l-0.0822,-0.1046z" fill="currentColor"></path>
      <path stroke="null" id="svg_521" d="m20.49589,39.40666l0.0822,0.1046l-0.0822,-0.1046z" fill="currentColor"></path>
      <path stroke="null" id="svg_522" d="m23.04424,39.40666l0.0822,0.1046l-0.0822,-0.1046m5.01448,0l0.0822,0.1046l-0.0822,-0.1046z" fill="currentColor"></path>
      <path stroke="null" id="svg_523" d="m20.6603,39.51126l0.0822,0.1046l-0.0822,-0.1046z" fill="currentColor"></path>
      <path stroke="null" id="svg_524" d="m23.20865,39.51126l0.0822,0.1046l-0.0822,-0.1046z" fill="currentColor"></path>
      <path stroke="null" id="svg_525" d="m27.89431,39.51126l0.0822,0.1046l-0.0822,-0.1046m2.54834,0l0.0822,0.1046l-0.0822,-0.1046z" fill="currentColor"></path>
      <path stroke="null" id="svg_526" d="m20.82471,39.61586l0.0822,0.1046l-0.0822,-0.1046z" fill="currentColor"></path>
      <path stroke="null" id="svg_527" d="m23.37306,39.61586l0.0822,0.1046l-0.0822,-0.1046m4.35685,0l0.0822,0.1046l-0.0822,-0.1046z" fill="currentColor"></path>
      <path stroke="null" id="svg_528" d="m30.27824,39.61586l0.0822,0.1046l-0.0822,-0.1046m-0.16441,0.1046l0.0822,0.1046l-0.0822,-0.1046z" fill="currentColor"></path>
      <path stroke="null" id="svg_529" d="m21.07133,39.82506l0.0822,0.1046l-0.0822,-0.1046z" fill="currentColor"></path>
      <path stroke="null" id="svg_530" d="m23.61967,39.82506l0.0822,0.1046l-0.0822,-0.1046m3.86362,0l0.0822,0.1046l-0.0822,-0.1046z" fill="currentColor"></path>
      <path stroke="null" id="svg_531" d="m30.03163,39.82506l0.0822,0.1046l-0.0822,-0.1046z" fill="currentColor"></path>
      <path stroke="null" id="svg_532" d="m21.23574,39.92966l0.0822,0.1046l-0.0822,-0.1046z" fill="currentColor"></path>
      <path stroke="null" id="svg_533" d="m23.78408,39.92966l0.0822,0.1046l-0.0822,-0.1046m3.5348,0l0.0822,0.1046l-0.0822,-0.1046m2.54834,0l0.0822,0.1046l-0.0822,-0.1046z" fill="currentColor"></path>
      <path stroke="null" id="svg_534" d="m21.40015,40.03426l0.0822,0.1046l-0.0822,-0.1046z" fill="currentColor"></path>
      <path stroke="null" id="svg_535" d="m23.94849,40.03426l0.0822,0.1046l-0.0822,-0.1046m3.20598,0l0.0822,0.1046l-0.0822,-0.1046z" fill="currentColor"></path>
      <path stroke="null" id="svg_536" d="m29.70281,40.03426l0.0822,0.1046l-0.0822,-0.1046m-5.67212,0.1046l0.0822,0.1046l-0.0822,-0.1046z" fill="currentColor"></path>
      <path stroke="null" id="svg_537" d="m21.64676,40.24346l0.0822,0.1046l-0.0822,-0.1046z" fill="currentColor"></path>
      <path stroke="null" id="svg_538" d="m24.1951,40.24346l0.0822,0.1046l-0.0822,-0.1046m2.71275,0l0.0822,0.1046l-0.0822,-0.1046z" fill="currentColor"></path>
      <path stroke="null" id="svg_539" d="m29.4562,40.24346l0.0822,0.1046l-0.0822,-0.1046z" fill="currentColor"></path>
      <path stroke="null" id="svg_540" d="m21.81117,40.34806l0.0822,0.1046l-0.0822,-0.1046z" fill="currentColor"></path>
      <path stroke="null" id="svg_541" d="m24.35951,40.34806l0.0822,0.1046l-0.0822,-0.1046m2.38393,0l0.0822,0.1046l-0.0822,-0.1046m2.54834,0l0.0822,0.1046l-0.0822,-0.1046z" fill="currentColor"></path>
      <path stroke="null" id="svg_542" d="m21.97558,40.45266l0.0822,0.1046l-0.0822,-0.1046m7.1518,0l0.0822,0.1046l-0.0822,-0.1046z" fill="currentColor"></path>
      <path stroke="null" id="svg_543" d="m22.05778,40.55726l0.0822,0.1046l-0.0822,-0.1046z" fill="currentColor"></path>
      <path stroke="null" id="svg_544" d="m24.60612,40.55726l0.0822,0.1046l-0.0822,-0.1046m1.89071,0l0.0822,0.1046l-0.0822,-0.1046z" fill="currentColor"></path>
      <path stroke="null" id="svg_545" d="m22.22219,40.66186l0.0822,0.1046l-0.0822,-0.1046z" fill="currentColor"></path>
      <path stroke="null" id="svg_546" d="m24.77053,40.66186l0.0822,0.1046l-0.0822,-0.1046m1.56189,0l0.0822,0.1046l-0.0822,-0.1046z" fill="currentColor"></path>
      <path stroke="null" id="svg_547" d="m28.88077,40.66186l0.0822,0.1046l-0.0822,-0.1046z" fill="currentColor"></path>
      <path stroke="null" id="svg_548" d="m22.3866,40.76646l0.0822,0.1046l-0.0822,-0.1046z" fill="currentColor"></path>
      <path stroke="null" id="svg_549" d="m24.93494,40.76646l0.0822,0.1046l-0.0822,-0.1046m1.23307,0l0.0822,0.1046l-0.0822,-0.1046z" fill="currentColor"></path>
      <path stroke="null" id="svg_550" d="m28.71636,40.76646l0.0822,0.1046l-0.0822,-0.1046m-0.16441,0.1046l0.0822,0.1046l-0.0822,-0.1046z" fill="currentColor"></path>
      <path stroke="null" id="svg_551" d="m22.63321,40.97566l0.0822,0.1046l-0.0822,-0.1046z" fill="currentColor"></path>
      <path stroke="null" id="svg_552" d="m25.18156,40.97566l0.0822,0.1046l-0.0822,-0.1046m0.73984,0l0.0822,0.1046l-0.0822,-0.1046z" fill="currentColor"></path>
      <path stroke="null" id="svg_553" d="m22.79762,41.08025l0.0822,0.1046l-0.0822,-0.1046m2.54834,0l0.0822,0.1046l-0.0822,-0.1046m0.41102,0l0.0822,0.1046l-0.0822,-0.1046m2.54834,0l0.0822,0.1046l-0.0822,-0.1046z" fill="currentColor"></path>
      <path stroke="null" id="svg_554" d="m22.96203,41.18485l0.0822,0.1046l-0.0822,-0.1046z" fill="currentColor"></path>
      <path stroke="null" id="svg_555" d="m25.56521,41.21969l0.05475,0.03494l-0.05475,-0.03494z" fill="currentColor"></path>
      <path stroke="null" id="svg_556" d="m28.14092,41.18485l0.0822,0.1046l-0.0822,-0.1046z" fill="currentColor"></path>
      <path stroke="null" id="svg_557" d="m23.20865,41.39405l0.0822,0.1046l-0.0822,-0.1046m4.68566,0l0.0822,0.1046l-0.0822,-0.1046m-4.52125,0.1046l0.0822,0.1046l-0.0822,-0.1046m4.35685,0l0.0822,0.1046l-0.0822,-0.1046z" fill="currentColor"></path>
      <path stroke="null" id="svg_558" d="m23.53746,41.60325l0.0822,0.1046l-0.0822,-0.1046m4.02803,0l0.0822,0.1046l-0.0822,-0.1046z" fill="currentColor"></path>
      <path stroke="null" id="svg_559" d="m23.78408,41.81245l0.0822,0.1046l-0.0822,-0.1046m3.5348,0l0.0822,0.1046l-0.0822,-0.1046z" fill="currentColor"></path>
      <path stroke="null" id="svg_560" d="m23.94849,41.91705l0.0822,0.1046l-0.0822,-0.1046z" fill="currentColor"></path>
      <path stroke="null" id="svg_561" d="m27.15447,41.91705l0.0822,0.1046l-0.0822,-0.1046z" fill="currentColor"></path>
      <path stroke="null" id="svg_562" d="m24.1129,42.02165l0.0822,0.1046l-0.0822,-0.1046m2.87716,0l0.0822,0.1046l-0.0822,-0.1046z" fill="currentColor"></path>
      <path stroke="null" id="svg_563" d="m24.35951,42.23085l0.0822,0.1046l-0.0822,-0.1046m2.38393,0l0.0822,0.1046l-0.0822,-0.1046z" fill="currentColor"></path>
      <path stroke="null" id="svg_564" d="m24.52392,42.33545l0.0822,0.1046l-0.0822,-0.1046m2.05512,0l0.0822,0.1046l-0.0822,-0.1046m-0.16441,0.1046l0.0822,0.1046l-0.0822,-0.1046z" fill="currentColor"></path>
      <path stroke="null" id="svg_565" d="m24.77053,42.54465l0.0822,0.1046l-0.0822,-0.1046m1.56189,0l0.0822,0.1046l-0.0822,-0.1046m-1.39748,0.1046l0.0822,0.1046l-0.0822,-0.1046m1.23307,0l0.0822,0.1046l-0.0822,-0.1046z" fill="currentColor"></path>
      <path stroke="null" id="svg_566" d="m25.09935,42.75385l0.0822,0.1046l-0.0822,-0.1046m0.90425,0l0.0822,0.1046l-0.0822,-0.1046z" fill="currentColor"></path>
      <path stroke="null" id="svg_567" d="m25.34597,42.96305l0.0822,0.1046l-0.0822,-0.1046m0.41102,0l0.0822,0.1046l-0.0822,-0.1046m-0.19178,0.13943l0.05475,0.03494l-0.05475,-0.03494z" fill="currentColor"></path>
    </g>
    <text font-weight="bold" transform="matrix(0.785005 0 0 0.739812 -388.507 -88)" stroke="null" fill="#ffffff" stroke-width="0" x="589.41236" y="162" id="svg_1" font-size="24" font-family="'Tahoma'" text-anchor="start" xml:space="preserve">B L D D B</text>
  </g>
</svg>