<svg xmlns="http://www.w3.org/2000/svg" width="398" height="415">
<path style="fill: #ffffff; stroke:none; opacity:0;" d="M0 0L0 415L398 415L398 0L0 0z"/>
<path style="fill:#000000; stroke:none;" d="M196.667 17.3333L197.333 17.6667L196.667 17.3333M194 18L195 19L194 18z"/>
<path style="fill:#000000; stroke:none;" d="M195 18.7431C181.246 22.3718 166.276 34.7793 154 41.9892C126.112 58.3685 97.9729 74.3408 70 90.5756C60.0274 96.3635 49.907 101.899 40 107.799C36.3876 109.951 30.3445 112.052 28.6034 116.185C23.9484 127.234 28 147.988 28 160L28 263L28 296C28 299.988 26.8759 306.122 29.0278 309.671C33.4427 316.953 48.7033 322.238 56 326.421C78.0438 339.059 100.141 351.65 122 364.603C140.527 375.582 159.323 386.129 178 396.85C183.399 399.949 192.425 408 199 406.257C211.517 402.939 224.741 391.696 236 385.281C265.771 368.319 295.284 350.907 325 333.85L354 317.15C357.63 315.079 363.665 312.925 365.397 308.815C370.052 297.766 366 277.012 366 265L366 162L366 129C366 125.012 367.124 118.878 364.972 115.329C360.681 108.25 346.03 103.387 339 99.2006C316.186 85.6138 293.071 72.4261 270 59.2809C251.947 48.9947 234.045 38.4504 216 28.1505C210.63 25.0852 201.475 17.0347 195 18.7431z"/>
<path style="fill:#000000; stroke:none;" d="M199 18L200 19L199 18z"/>
<path style="fill:#000000; stroke:none;" d="M191 20L192 21L191 20M202 20L203 21L202 20z"/>
<path style="fill:#000000; stroke:none;" d="M189 21L190 22L189 21M204 21L205 22L204 21M187 22L188 23L187 22M206 22L207 23L206 22z"/>
<path style="fill:#000000; stroke:none;" d="M207 23L208 24L207 23M184 24L185 25L184 24M209 24L210 25L209 24z"/>
<path style="fill:#000000; stroke:none;" d="M182 25L183 26L182 25M211 25L212 26L211 25z"/>
<path style="fill:#000000; stroke:none;" d="M179 27L180 28L179 27M214 27L215 28L214 27M177 28L178 29L177 28z"/>
<path style="fill:#000000; stroke:none;" d="M216 28L217 29L216 28M175 29L176 30L175 29M218 29L219 30L218 29z"/>
<path style="fill:#000000; stroke:none;" d="M172 31L173 32L172 31M221 31L222 32L221 31z"/>
<path style="fill:#000000; stroke:none;" d="M170 32L171 33L170 32M223 32L224 33L223 32M168 33L169 34L168 33M225 33L226 34L225 33z"/>
<path style="fill:#000000; stroke:none;" d="M165 35L166 36L165 35z"/>
<path style="fill:#000000; stroke:none;" d="M196.667 35.3333L197.333 35.6667L196.667 35.3333z"/>
<path style="fill:#000000; stroke:none;" d="M228 35L229 36L228 35z"/>
<path style="fill:#000000; stroke:none;" d="M163 36L164 37L163 36M194 36L195 37L194 36z"/>
<path style="fill: #ffffff; stroke:none;" d="M195 36.6921C182.551 39.7084 169.068 51.1519 158 57.5756C132.04 72.6424 106.04 87.6499 80 102.579C71.3202 107.555 62.6071 112.503 54 117.603C50.8863 119.449 45.4353 121.43 44.3179 125.213C40.8017 137.117 44 154.565 44 167L44 258L44 289C44 292.525 42.9192 298.31 45.0278 301.366C49.3984 307.699 62.4009 312.135 69 316.011C89.5799 328.098 110.273 340.017 131 351.85C147.043 361.008 163.108 370.186 179 379.603C184.258 382.719 192.526 389.876 199 388.308C211.449 385.292 224.932 373.848 236 367.424C261.962 352.357 288.176 337.7 314 322.397C322.62 317.288 331.294 312.241 340 307.281C343.15 305.486 348.557 303.596 349.682 299.787C353.198 287.883 350 270.435 350 258L350 167L350 136C350 132.475 351.081 126.69 348.972 123.634C344.475 117.118 330.838 112.341 324 108.421C303.622 96.7388 283.4 84.7948 263 73.1505C246.955 63.9918 230.894 54.8154 215 45.3966C209.742 42.2806 201.474 35.1237 195 36.6921z"/>
<path style="fill:#000000; stroke:none;" d="M199 36L200 37L199 36M230 36L231 37L230 36M161 37L162 38L161 37z"/>
<path style="fill:#000000; stroke:none;" d="M192 37L193 38L192 37M201 37L202 38L201 37M233 38L234 39L233 38M158 39L159 40L158 39z"/>
<path style="fill:#000000; stroke:none;" d="M189 39L190 40L189 39M204 39L205 40L204 39z"/>
<path style="fill:#000000; stroke:none;" d="M235 39L236 40L235 39z"/>
<path style="fill:#000000; stroke:none;" d="M156 40L157 41L156 40z"/>
<path style="fill:#000000; stroke:none;" d="M187 40L188 41L187 40M206 40L207 41L206 40z"/>
<path style="fill:#000000; stroke:none;" d="M237 40L238 41L237 40M154 41L155 42L154 41z"/>
<path style="fill:#000000; stroke:none;" d="M185 41L186 42L185 41M208 41L209 42L208 41M153 42L154 43L153 42M240 42L241 43L240 42M151 43L152 44L151 43z"/>
<path style="fill:#000000; stroke:none;" d="M182 43L183 44L182 43M211 43L212 44L211 43M242 43L243 44L242 43M149 44L150 45L149 44z"/>
<path style="fill:#000000; stroke:none;" d="M180 44L181 45L180 44M213 44L214 45L213 44z"/>
<path style="fill:#000000; stroke:none;" d="M244 44L245 45L244 44z"/>
<path style="fill:#000000; stroke:none;" d="M146 46L147 47L146 46z"/>
<path style="fill:#000000; stroke:none;" d="M177 46L178 47L177 46M216 46L217 47L216 46z"/>
<path style="fill:#000000; stroke:none;" d="M247 46L248 47L247 46M144 47L145 48L144 47z"/>
<path style="fill:#000000; stroke:none;" d="M175 47L176 48L175 47M218 47L219 48L218 47M249 47L250 48L249 47M142 48L143 49L142 48z"/>
<path style="fill:#000000; stroke:none;" d="M173 48L174 49L173 48M220 48L221 49L220 48z"/>
<path style="fill:#000000; stroke:none;" d="M251 48L252 49L251 48z"/>
<path style="fill:#000000; stroke:none;" d="M252 49L253 50L252 49M139 50L140 51L139 50z"/>
<path style="fill:#000000; stroke:none;" d="M170 50L171 51L170 50M223 50L224 51L223 50z"/>
<path style="fill:#000000; stroke:none;" d="M254 50L255 51L254 50z"/>
<path style="fill:#000000; stroke:none;" d="M137 51L138 52L137 51z"/>
<path style="fill:#000000; stroke:none;" d="M168 51L169 52L168 51z"/>
<path style="fill:#000000; stroke:none;" d="M225 51L226 52L225 51M256 51L257 52L256 51M135 52L136 53L135 52z"/>
<path style="fill:#000000; stroke:none;" d="M166 52L167 53L166 52M227 52L228 53L227 52z"/>
<path style="fill:#000000; stroke:none;" d="M228 53L229 54L228 53z"/>
<path style="fill:#000000; stroke:none;" d="M259 53L260 54L259 53M132 54L133 55L132 54z"/>
<path style="fill:#000000; stroke:none;" d="M163 54L164 55L163 54M230 54L231 55L230 54z"/>
<path style="fill:#000000; stroke:none;" d="M261 54L262 55L261 54z"/>
<path style="fill:#000000; stroke:none;" d="M130 55L131 56L130 55z"/>
<path style="fill:#000000; stroke:none;" d="M161 55L162 56L161 55M232 55L233 56L232 55z"/>
<path style="fill:#000000; stroke:none;" d="M263 55L264 56L263 55M128 56L129 57L128 56z"/>
<path style="fill:#000000; stroke:none;" d="M234 56L235 57L234 56z"/>
<path style="fill:#000000; stroke:none;" d="M158 57L159 58L158 57M235 57L236 58L235 57z"/>
<path style="fill:#000000; stroke:none;" d="M266 57L267 58L266 57M125 58L126 59L125 58z"/>
<path style="fill:#000000; stroke:none;" d="M156 58L157 59L156 58M237 58L238 59L237 58M268 58L269 59L268 58M123 59L124 60L123 59z"/>
<path style="fill:#000000; stroke:none;" d="M154 59L155 60L154 59M239 59L240 60L239 59z"/>
<path style="fill:#000000; stroke:none;" d="M270 59L271 60L270 59M121 60L122 61L121 60z"/>
<path style="fill:#000000; stroke:none;" d="M120 61L121 62L120 61z"/>
<path style="fill:#000000; stroke:none;" d="M151 61L152 62L151 61M242 61L243 62L242 61z"/>
<path style="fill:#000000; stroke:none;" d="M273 61L274 62L273 61M118 62L119 63L118 62M149 62L150 63L149 62z"/>
<path style="fill:#000000; stroke:none;" d="M244 62L245 63L244 62M275 62L276 63L275 62M116 63L117 64L116 63z"/>
<path style="fill:#000000; stroke:none;" d="M147 63L148 64L147 63M246 63L247 64L246 63M278 64L279 65L278 64M113 65L114 66L113 65z"/>
<path style="fill:#000000; stroke:none;" d="M144 65L145 66L144 65M249 65L250 66L249 65z"/>
<path style="fill:#000000; stroke:none;" d="M280 65L281 66L280 65M111 66L112 67L111 66M142 66L143 67L142 66M251 66L252 67L251 66z"/>
<path style="fill:#000000; stroke:none;" d="M282 66L283 67L282 66M109 67L110 68L109 67z"/>
<path style="fill:#000000; stroke:none;" d="M140 67L141 68L140 67M253 67L254 68L253 67z"/>
<path style="fill:#000000; stroke:none;" d="M139 68L140 69L139 68M254 68L255 69L254 68z"/>
<path style="fill:#000000; stroke:none;" d="M285 68L286 69L285 68M106 69L107 70L106 69z"/>
<path style="fill:#000000; stroke:none;" d="M137 69L138 70L137 69M256 69L257 70L256 69M287 69L288 70L287 69M104 70L105 71L104 70z"/>
<path style="fill:#000000; stroke:none;" d="M135 70L136 71L135 70M258 70L259 71L258 70z"/>
<path style="fill:#000000; stroke:none;" d="M289 70L290 71L289 70z"/>
<path style="fill:#000000; stroke:none;" d="M101 72L102 73L101 72z"/>
<path style="fill:#000000; stroke:none;" d="M132 72L133 73L132 72M261 72L262 73L261 72z"/>
<path style="fill:#000000; stroke:none;" d="M292 72L293 73L292 72z"/>
<path style="fill:#000000; stroke:none;" d="M99 73L100 74L99 73z"/>
<path style="fill:#000000; stroke:none;" d="M130 73L131 74L130 73z"/>
<path style="fill:#000000; stroke:none;" d="M263 73L264 74L263 73M294 73L295 74L294 73M97 74L98 75L97 74z"/>
<path style="fill:#000000; stroke:none;" d="M128 74L129 75L128 74M265 74L266 75L265 74z"/>
<path style="fill:#000000; stroke:none;" d="M296 74L297 75L296 74z"/>
<path style="fill:#000000; stroke:none;" d="M96 75L97 76L96 75M297 75L298 76L297 75M94 76L95 77L94 76z"/>
<path style="fill:#000000; stroke:none;" d="M125 76L126 77L125 76M268 76L269 77L268 76z"/>
<path style="fill:#000000; stroke:none;" d="M299 76L300 77L299 76z"/>
<path style="fill:#000000; stroke:none;" d="M92 77L93 78L92 77z"/>
<path style="fill:#000000; stroke:none;" d="M123 77L124 78L123 77M270 77L271 78L270 77z"/>
<path style="fill:#000000; stroke:none;" d="M301 77L302 78L301 77z"/>
<path style="fill:#000000; stroke:none;" d="M272 78L273 79L272 78M89 79L90 80L89 79z"/>
<path style="fill:#000000; stroke:none;" d="M120 79L121 80L120 79z"/>
<path style="fill:#000000; stroke:none;" d="M304 79L305 80L304 79M87 80L88 81L87 80z"/>
<path style="fill:#000000; stroke:none;" d="M118 80L119 81L118 80M275 80L276 81L275 80z"/>
<path style="fill:#000000; stroke:none;" d="M306 80L307 81L306 80z"/>
<path style="fill:#000000; stroke:none;" d="M85 81L86 82L85 81z"/>
<path style="fill:#000000; stroke:none;" d="M116 81L117 82L116 81M277 81L278 82L277 81z"/>
<path style="fill:#000000; stroke:none;" d="M308 81L309 82L308 81z"/>
<path style="fill:#000000; stroke:none;" d="M82 83L83 84L82 83z"/>
<path style="fill:#000000; stroke:none;" d="M113 83L114 84L113 83z"/>
<path style="fill:#000000; stroke:none;" d="M311 83L312 84L311 83z"/>
<path style="fill:#000000; stroke:none;" d="M80 84L81 85L80 84z"/>
<path style="fill:#000000; stroke:none;" d="M111 84L112 85L111 84z"/>
<path style="fill:#000000; stroke:none;" d="M282 84L283 85L282 84M313 84L314 85L313 84M78 85L79 86L78 85z"/>
<path style="fill:#000000; stroke:none;" d="M109 85L110 86L109 85M284 85L285 86L284 85z"/>
<path style="fill:#000000; stroke:none;" d="M315 85L316 86L315 85z"/>
<path style="fill:#000000; stroke:none;" d="M75 87L76 88L75 87z"/>
<path style="fill:#000000; stroke:none;" d="M106 87L107 88L106 87M287 87L288 88L287 87z"/>
<path style="fill:#000000; stroke:none;" d="M318 87L319 88L318 87z"/>
<path style="fill:#000000; stroke:none;" d="M73 88L74 89L73 88M104 88L105 89L104 88z"/>
<path style="fill:#000000; stroke:none;" d="M289 88L290 89L289 88z"/>
<path style="fill:#000000; stroke:none;" d="M320 88L321 89L320 88M71 89L72 90L71 89z"/>
<path style="fill:#000000; stroke:none;" d="M102 89L103 90L102 89M291 89L292 90L291 89M70 90L71 91L70 90M323 90L324 91L323 90M68 91L69 92L68 91z"/>
<path style="fill:#000000; stroke:none;" d="M99 91L100 92L99 91M294 91L295 92L294 91z"/>
<path style="fill:#000000; stroke:none;" d="M325 91L326 92L325 91z"/>
<path style="fill:#000000; stroke:none;" d="M66 92L67 93L66 92z"/>
<path style="fill:#000000; stroke:none;" d="M97 92L98 93L97 92M296 92L297 93L296 92z"/>
<path style="fill:#000000; stroke:none;" d="M327 92L328 93L327 92z"/>
<path style="fill:#000000; stroke:none;" d="M95 93L96 94L95 93M63 94L64 95L63 94z"/>
<path style="fill:#000000; stroke:none;" d="M299 94L300 95L299 94z"/>
<path style="fill:#000000; stroke:none;" d="M330 94L331 95L330 94M61 95L62 96L61 95z"/>
<path style="fill:#000000; stroke:none;" d="M92 95L93 96L92 95M301 95L302 96L301 95M332 95L333 96L332 95M59 96L60 97L59 96z"/>
<path style="fill:#000000; stroke:none;" d="M90 96L91 97L90 96M303 96L304 97L303 96z"/>
<path style="fill:#000000; stroke:none;" d="M334 96L335 97L334 96z"/>
<path style="fill:#000000; stroke:none;" d="M56 98L57 99L56 98z"/>
<path style="fill:#000000; stroke:none;" d="M87 98L88 99L87 98M306 98L307 99L306 98z"/>
<path style="fill:#000000; stroke:none;" d="M337 98L338 99L337 98z"/>
<path style="fill:#000000; stroke:none;" d="M54 99L55 100L54 99M85 99L86 100L85 99z"/>
<path style="fill:#000000; stroke:none;" d="M308 99L309 100L308 99z"/>
<path style="fill:#000000; stroke:none;" d="M339 99L340 100L339 99M52 100L53 101L52 100z"/>
<path style="fill:#000000; stroke:none;" d="M83 100L84 101L83 100M310 100L311 101L310 100z"/>
<path style="fill:#000000; stroke:none;" d="M341 100L342 101L341 100M311 101L312 102L311 101z"/>
<path style="fill:#000000; stroke:none;" d="M342 101L343 102L342 101M49 102L50 103L49 102z"/>
<path style="fill:#000000; stroke:none;" d="M80 102L81 103L80 102M313 102L314 103L313 102z"/>
<path style="fill:#000000; stroke:none;" d="M344 102L345 103L344 102z"/>
<path style="fill:#000000; stroke:none;" d="M47 103L48 104L47 103z"/>
<path style="fill:#000000; stroke:none;" d="M78 103L79 104L78 103M315 103L316 104L315 103z"/>
<path style="fill:#000000; stroke:none;" d="M346 103L347 104L346 103M45 104L46 105L45 104z"/>
<path style="fill:#000000; stroke:none;" d="M76 104L77 105L76 104M317 104L318 105L317 104z"/>
<path style="fill:#000000; stroke:none;" d="M318 105L319 106L318 105z"/>
<path style="fill:#000000; stroke:none;" d="M349 105L350 106L349 105M42 106L43 107L42 106z"/>
<path style="fill:#000000; stroke:none;" d="M73 106L74 107L73 106M320 106L321 107L320 106z"/>
<path style="fill:#000000; stroke:none;" d="M351 106L352 107L351 106z"/>
<path style="fill:#000000; stroke:none;" d="M40 107L41 108L40 107z"/>
<path style="fill:#000000; stroke:none;" d="M71 107L72 108L71 107M322 107L323 108L322 107z"/>
<path style="fill:#000000; stroke:none;" d="M353 107L354 108L353 107z"/>
<path style="fill:#000000; stroke:none;" d="M37 109L38 110L37 109z"/>
<path style="fill:#000000; stroke:none;" d="M68 109L69 110L68 109M325 109L326 110L325 109z"/>
<path style="fill:#000000; stroke:none;" d="M356 109L357 110L356 109M35 110L36 111L35 110z"/>
<path style="fill:#000000; stroke:none;" d="M66 110L67 111L66 110M327 110L328 111L327 110M358 110L359 111L358 110M33 111L34 112L33 111z"/>
<path style="fill:#000000; stroke:none;" d="M64 111L65 112L64 111M329 111L330 112L329 111z"/>
<path style="fill:#000000; stroke:none;" d="M360 111L361 112L360 111z"/>
<path style="fill:#000000; stroke:none;" d="M30 113L31 114L30 113z"/>
<path style="fill:#000000; stroke:none;" d="M61 113L62 114L61 113M332 113L333 114L332 113z"/>
<path style="fill:#000000; stroke:none;" d="M363 113L364 114L363 113z"/>
<path style="fill:#000000; stroke:none;" d="M28 114L29 115L28 114z"/>
<path style="fill:#000000; stroke:none;" d="M59 114L60 115L59 114M334 114L335 115L334 114z"/>
<path style="fill:#000000; stroke:none;" d="M365 114L366 115L365 114z"/>
<path style="fill:#000000; stroke:none;" d="M57 115L58 116L57 115M336 115L337 116L336 115z"/>
<path style="fill:#000000; stroke:none;" d="M337 116L338 117L337 116M54 117L55 118L54 117M339 117L340 118L339 117z"/>
<path style="fill:#000000; stroke:none;" d="M52 118L53 119L52 118M341 118L342 119L341 118z"/>
<path style="fill:#000000; stroke:none;" d="M49 120L50 121L49 120M344 120L345 121L344 120M47 121L48 122L47 121M346 121L347 122L346 121z"/>
<path style="fill:#000000; stroke:none;" d="M45 122L46 123L45 122M348 122L349 123L348 122z"/>
<path style="fill:#000000; stroke:none;" d="M43 124L43 301L44 301L44 177L44 141L43 124M350 124L350 301L351 301L351 177L351 141L350 124z"/>
<path style="fill:#000000; stroke:none;" d="M196.667 129.333L197.333 129.667L196.667 129.333z"/>
<path style="fill:#000000; stroke:none;" d="M194 130.819C186.435 133.319 170.457 140.747 165.742 147.213C162.151 152.138 166.083 158.903 160.852 163.046C152.887 169.352 132.97 173.481 128.894 183.105C125.047 192.184 131.03 203.86 127.397 212.907C125.194 218.391 117.856 218.42 115.028 223.213C111.817 228.655 111.905 253.272 115.179 258.671C118.797 264.638 139.04 275.498 146 275.972C149.97 276.243 152.914 273.022 157 274.318C166.981 277.485 176.863 285.046 186 290.14C190.266 292.518 194.938 295.853 200 294.181C213.167 289.83 223.771 278.424 237 274.321C241.053 273.064 244.029 276.392 248 276.022C254.87 275.383 277.55 263.672 279.566 256.907C281.85 249.244 279.836 238.968 280.015 231C280.074 228.35 281.068 224.78 279.307 222.498C275.791 217.941 268.03 218.456 266.318 211.96C264.025 203.263 270.296 187.619 263.486 180.637C255.136 172.076 239.128 170.995 231.603 161.61C228.297 157.486 231.637 151.573 228.972 147.275C227.329 144.623 223.605 143.563 221 142.136C214.145 138.38 202.142 128.129 194 130.819z"/>
<path style="fill:#000000; stroke:none;" d="M192 131L193 132L192 131M201 131L202 132L201 131z"/>
<path style="fill:#000000; stroke:none;" d="M190 132L191 133L190 132z"/>
<path style="fill:#000000; stroke:none;" d="M203 132L204 133L203 132z"/>
<path style="fill:#000000; stroke:none;" d="M188 133L189 134L188 133M205 133L206 134L205 133z"/>
<path style="fill:#000000; stroke:none;" d="M183 136L184 137L183 136M210 136L211 137L210 136M181 137L182 138L181 137M212 137L213 138L212 137z"/>
<path style="fill:#000000; stroke:none;" d="M179 138L180 139L179 138z"/>
<path style="fill:#000000; stroke:none;" d="M195 138L196 139L195 138z"/>
<path style="fill: #ffffff; stroke:none;" d="M177 149C190.628 160.841 203.345 160.864 217 149L197 138.781L177 149z"/>
<path style="fill:#000000; stroke:none;" d="M198 138L199 139L198 138z"/>
<path style="fill:#000000; stroke:none;" d="M214 138L215 139L214 138z"/>
<path style="fill:#000000; stroke:none;" d="M193 139L194 140L193 139M200 139L201 140L200 139M174 141L175 142L174 141M219 141L220 142L219 141M172 142L173 143L172 142z"/>
<path style="fill:#000000; stroke:none;" d="M188 142L189 143L188 142M205 142L206 143L205 142z"/>
<path style="fill:#000000; stroke:none;" d="M221 142L222 143L221 142z"/>
<path style="fill:#000000; stroke:none;" d="M170 143L171 144L170 143z"/>
<path style="fill:#000000; stroke:none;" d="M186 143L187 144L186 143M207 143L208 144L207 143z"/>
<path style="fill:#000000; stroke:none;" d="M223 143L224 144L223 143M168 144L169 145L168 144z"/>
<path style="fill:#000000; stroke:none;" d="M184 144L185 145L184 144M209 144L210 145L209 144z"/>
<path style="fill:#000000; stroke:none;" d="M210 145L211 146L210 145M228 145L229 146L228 145M165 146L166 147L165 146z"/>
<path style="fill:#000000; stroke:none;" d="M229 146L230 147L229 146z"/>
<path style="fill:#000000; stroke:none;" d="M164 147L165 148L164 147M179 147L180 148L179 147M214 147L215 148L214 147z"/>
<path style="fill:#000000; stroke:none;" d="M164 148L165 149L164 148M177 148L178 149L177 148M216 148L217 149L216 148z"/>
<path style="fill:#000000; stroke:none;" d="M230.333 148.667L230.667 149.333L230.333 148.667M176 149L177 150L176 149z"/>
<path style="fill:#000000; stroke:none;" d="M217 149L218 150L217 149z"/>
<path style="fill:#000000; stroke:none;" d="M178 150L179 151L178 150M215 150L216 151L215 150M180 151L181 152L180 151M213 151L214 152L213 151z"/>
<path style="fill:#000000; stroke:none;" d="M185 154L186 155L185 154M208 154L209 155L208 154M187 155L188 156L187 155M206 155L207 156L206 155z"/>
<path style="fill: #ffffff; stroke:none;" d="M172 156C172 162.208 170.112 172.052 172.603 177.787C174.999 183.301 187.567 188.281 193 190C193 183.866 194.923 173.901 192.397 168.263C189.955 162.815 177.292 158.215 172 156z"/>
<path style="fill:#000000; stroke:none;" d="M173 156L174 157L173 156M189 156L190 157L189 156z"/>
<path style="fill:#000000; stroke:none;" d="M204 156L205 157L204 156z"/>
<path style="fill:#000000; stroke:none;" d="M220 156L221 157L220 156z"/>
<path style="fill: #ffffff; stroke:none;" d="M221 156L202.028 167.39L201 190C216.39 184.399 228.471 173.805 221 156z"/>
<path style="fill:#000000; stroke:none;" d="M175 157L176 158L175 157z"/>
<path style="fill:#000000; stroke:none;" d="M191 157L192 158L191 157M202 157L203 158L202 157z"/>
<path style="fill:#000000; stroke:none;" d="M218 157L219 158L218 157M177 158L178 159L177 158z"/>
<path style="fill:#000000; stroke:none;" d="M200 158L201 159L200 158z"/>
<path style="fill:#000000; stroke:none;" d="M216 158L217 159L216 158z"/>
<path style="fill:#000000; stroke:none;" d="M180 160L181 161L180 160z"/>
<path style="fill:#000000; stroke:none;" d="M196.667 160.333L197.333 160.667L196.667 160.333z"/>
<path style="fill:#000000; stroke:none;" d="M213 160L214 161L213 160M182 161L183 162L182 161M211 161L212 162L211 161z"/>
<path style="fill:#000000; stroke:none;" d="M162 162L163 163L162 162M184 162L185 163L184 162M209 162L210 163L209 162M231 162L232 163L231 162z"/>
<path style="fill:#000000; stroke:none;" d="M160 163L161 164L160 163z"/>
<path style="fill:#000000; stroke:none;" d="M186 163L187 164L186 163M207 163L208 164L207 163z"/>
<path style="fill:#000000; stroke:none;" d="M233 163L234 164L233 163M158 164L159 165L158 164z"/>
<path style="fill:#000000; stroke:none;" d="M188 164L189 165L188 164M205 164L206 165L205 164z"/>
<path style="fill:#000000; stroke:none;" d="M235 164L236 165L235 164M189 165L190 166L189 165z"/>
<path style="fill:#000000; stroke:none;" d="M155 166L156 167L155 166M238 166L239 167L238 166M153 167L154 168L153 167M240 167L241 168L240 167z"/>
<path style="fill:#000000; stroke:none;" d="M151 168L152 169L151 168M242 168L243 169L242 168M149 169L150 170L149 169M244 169L245 170L244 169z"/>
<path style="fill:#000000; stroke:none;" d="M146 171L147 172L146 171z"/>
<path style="fill: #ffffff; stroke:none;" d="M136 210L147 205.693L171 218.136L178.883 223.275L179.015 232L178.397 256.96L164 269C172.145 273.758 187.548 286.213 197 286.213C206.452 286.213 221.855 273.758 230 269C226.262 264.64 217.903 263.127 215.603 257.79C213.062 251.891 212.767 228.741 216.028 223.213C219.341 217.597 240.482 206.022 247 205.693C250.692 205.507 254.681 208.611 258 210C258 203.532 259.99 193.183 257.397 187.213C254.456 180.444 236.696 173.437 230 171C230 174.46 230.649 178.795 228.972 181.957C225.579 188.353 204.282 200.169 197 200.335C192.595 200.435 187.685 196.502 184 194.424C172.359 187.861 164 185.569 164 171C157.304 173.437 139.544 180.444 136.603 187.213C134.01 193.183 136 203.532 136 210z"/>
<path style="fill:#000000; stroke:none;" d="M247 171L248 172L247 171M144 172L145 173L144 172z"/>
<path style="fill:#000000; stroke:none;" d="M160 172L161 173L160 172M233 172L234 173L233 172z"/>
<path style="fill:#000000; stroke:none;" d="M249 172L250 173L249 172z"/>
<path style="fill:#000000; stroke:none;" d="M142 173L143 174L142 173z"/>
<path style="fill:#000000; stroke:none;" d="M158 173L159 174L158 173M235 173L236 174L235 173z"/>
<path style="fill:#000000; stroke:none;" d="M251 173L252 174L251 173M140 174L141 175L140 174z"/>
<path style="fill:#000000; stroke:none;" d="M156 174L157 175L156 174M237 174L238 175L237 174z"/>
<path style="fill:#000000; stroke:none;" d="M253 174L254 175L253 174z"/>
<path style="fill:#000000; stroke:none;" d="M137 176L138 177L137 176M256 176L257 177L256 176M135 177L136 178L135 177z"/>
<path style="fill:#000000; stroke:none;" d="M151 177L152 178L151 177M242 177L243 178L242 177z"/>
<path style="fill:#000000; stroke:none;" d="M258 177L259 178L258 177z"/>
<path style="fill:#000000; stroke:none;" d="M133 178L134 179L133 178z"/>
<path style="fill:#000000; stroke:none;" d="M149 178L150 179L149 178M244 178L245 179L244 178z"/>
<path style="fill:#000000; stroke:none;" d="M260 178L261 179L260 178M131 179L132 180L131 179z"/>
<path style="fill:#000000; stroke:none;" d="M147 179L148 180L147 179M172 179L173 180L172 179M221 179L222 180L221 179M246 179L247 180L246 179z"/>
<path style="fill:#000000; stroke:none;" d="M262 179L263 180L262 179z"/>
<path style="fill:#000000; stroke:none;" d="M174 180L175 181L174 180M219 180L220 181L219 180M164 181L165 182L164 181M176 181L177 182L176 181M217 181L218 182L217 181M229 181L230 182L229 181z"/>
<path style="fill:#000000; stroke:none;" d="M128 182L129 183L128 182M142 182L143 183L142 182M164 182L165 183L164 182M178 182L179 183L178 182M215 182L216 183L215 182M229 182L230 183L229 182M251 182L252 183L251 182M265 182L266 183L265 182z"/>
<path style="fill:#000000; stroke:none;" d="M128 183L129 184L128 183M140 183L141 184L140 183M253 183L254 184L253 183M265 183L266 184L265 183M138 184L139 185L138 184M181 184L182 185L181 184M255 184L256 185L255 184M136 185L137 186L136 185z"/>
<path style="fill:#000000; stroke:none;" d="M167 185L168 186L167 185z"/>
<path style="fill:#000000; stroke:none;" d="M183 185L184 186L183 185M210 185L211 186L210 185z"/>
<path style="fill:#000000; stroke:none;" d="M226 185L227 186L226 185z"/>
<path style="fill:#000000; stroke:none;" d="M169 186L170 187L169 186M185 186L186 187L185 186M208 186L209 187L208 186M224 186L225 187L224 186M171 187L172 188L171 187z"/>
<path style="fill:#000000; stroke:none;" d="M187 187L188 188L187 187M206 187L207 188L206 187z"/>
<path style="fill:#000000; stroke:none;" d="M222 187L223 188L222 187M173 188L174 189L173 188z"/>
<path style="fill:#000000; stroke:none;" d="M204 188L205 189L204 188z"/>
<path style="fill:#000000; stroke:none;" d="M220 188L221 189L220 188z"/>
<path style="fill:#000000; stroke:none;" d="M174 189L175 190L174 189M176 190L177 191L176 190z"/>
<path style="fill:#000000; stroke:none;" d="M192 190L193 191L192 190M201 190L202 191L201 190z"/>
<path style="fill:#000000; stroke:none;" d="M217 190L218 191L217 190z"/>
<path style="fill:#000000; stroke:none;" d="M178 191L179 192L178 191z"/>
<path style="fill:#000000; stroke:none;" d="M215 191L216 192L215 191z"/>
<path style="fill:#000000; stroke:none;" d="M180 192L181 193L180 192M213 192L214 193L213 192M182 193L183 194L182 193M211 193L212 194L211 193z"/>
<path style="fill:#000000; stroke:none;" d="M185 195L186 196L185 195M208 195L209 196L208 195M187 196L188 197L187 196M206 196L207 197L206 196z"/>
<path style="fill:#000000; stroke:none;" d="M189 197L190 198L189 197M204 197L205 198L204 197M191 198L192 199L191 198M202 198L203 199L202 198z"/>
<path style="fill:#000000; stroke:none;" d="M194 200L195 201L194 200M144 205L145 206L144 205M148 205L149 206L148 205z"/>
<path style="fill:#000000; stroke:none;" d="M245 205L246 206L245 205z"/>
<path style="fill:#000000; stroke:none;" d="M249 205L250 206L249 205M150 206L151 207L150 206M243 206L244 207L243 206z"/>
<path style="fill:#000000; stroke:none;" d="M141 207L142 208L141 207M252 207L253 208L252 207M139 208L140 209L139 208M153 208L154 209L153 208M240 208L241 209L240 208M254 208L255 209L254 208M137 209L138 210L137 209M155 209L156 210L155 209M238 209L239 210L238 209M256 209L257 210L256 209z"/>
<path style="fill:#000000; stroke:none;" d="M157 210L158 211L157 210M236 210L237 211L236 210M159 211L160 212L159 211M234 211L235 212L234 211M146 213L147 214L146 213z"/>
<path style="fill:#000000; stroke:none;" d="M162 213L163 214L162 213M231 213L232 214L231 213z"/>
<path style="fill:#000000; stroke:none;" d="M247 213L248 214L247 213z"/>
<path style="fill:#000000; stroke:none;" d="M144 214L145 215L144 214z"/>
<path style="fill: #ffffff; stroke:none;" d="M127 224L127 226L147 235.111L166 226L166 224L146 214.603L127 224z"/>
<path style="fill:#000000; stroke:none;" d="M148 214L149 215L148 214z"/>
<path style="fill:#000000; stroke:none;" d="M164 214L165 215L164 214M229 214L230 215L229 214z"/>
<path style="fill:#000000; stroke:none;" d="M245 214L246 215L245 214z"/>
<path style="fill: #ffffff; stroke:none;" d="M228 224L228 226L247 235.111L267 226L267 224L248 214.603L228 224z"/>
<path style="fill:#000000; stroke:none;" d="M249 214L250 215L249 214z"/>
<path style="fill:#000000; stroke:none;" d="M126 215L127 216L126 215z"/>
<path style="fill:#000000; stroke:none;" d="M142 215L143 216L142 215M150 215L151 216L150 215z"/>
<path style="fill:#000000; stroke:none;" d="M166 215L167 216L166 215z"/>
<path style="fill:#000000; stroke:none;" d="M227 215L228 216L227 215M243 215L244 216L243 215M251 215L252 216L251 215z"/>
<path style="fill:#000000; stroke:none;" d="M267 215L268 216L267 215z"/>
<path style="fill:#000000; stroke:none;" d="M140 216L141 217L140 216M152 216L153 217L152 216z"/>
<path style="fill:#000000; stroke:none;" d="M168 216L169 217L168 216M225 216L226 217L225 216z"/>
<path style="fill:#000000; stroke:none;" d="M241 216L242 217L241 216M123 217L124 218L123 217M154 217L155 218L154 217M239 217L240 218L239 217M270 217L271 218L270 217M121 218L122 219L121 218z"/>
<path style="fill:#000000; stroke:none;" d="M137 218L138 219L137 218z"/>
<path style="fill:#000000; stroke:none;" d="M171 218L172 219L171 218M222 218L223 219L222 218z"/>
<path style="fill:#000000; stroke:none;" d="M256 218L257 219L256 218z"/>
<path style="fill:#000000; stroke:none;" d="M272 218L273 219L272 218M119 219L120 220L119 219z"/>
<path style="fill:#000000; stroke:none;" d="M135 219L136 220L135 219M157 219L158 220L157 219z"/>
<path style="fill:#000000; stroke:none;" d="M173 219L174 220L173 219M220 219L221 220L220 219z"/>
<path style="fill:#000000; stroke:none;" d="M236 219L237 220L236 219z"/>
<path style="fill:#000000; stroke:none;" d="M258 219L259 220L258 219z"/>
<path style="fill:#000000; stroke:none;" d="M274 219L275 220L274 219M117 220L118 221L117 220z"/>
<path style="fill:#000000; stroke:none;" d="M133 220L134 221L133 220M159 220L160 221L159 220z"/>
<path style="fill:#000000; stroke:none;" d="M175 220L176 221L175 220z"/>
<path style="fill:#000000; stroke:none;" d="M218 220L219 221L218 220z"/>
<path style="fill:#000000; stroke:none;" d="M234 220L235 221L234 220z"/>
<path style="fill:#000000; stroke:none;" d="M260 220L261 221L260 220z"/>
<path style="fill:#000000; stroke:none;" d="M276 220L277 221L276 220z"/>
<path style="fill:#000000; stroke:none;" d="M131 221L132 222L131 221M161 221L162 222L161 221M178 221L179 222L178 221z"/>
<path style="fill:#000000; stroke:none;" d="M216 221L217 222L216 221z"/>
<path style="fill:#000000; stroke:none;" d="M232 221L233 222L232 221M262 221L263 222L262 221z"/>
<path style="fill:#000000; stroke:none;" d="M279 221L280 222L279 221z"/>
<path style="fill:#000000; stroke:none;" d="M163 222L164 223L163 222z"/>
<path style="fill:#000000; stroke:none;" d="M179 222L180 223L179 222M215 222L216 223L215 222z"/>
<path style="fill:#000000; stroke:none;" d="M230 222L231 223L230 222z"/>
<path style="fill:#000000; stroke:none;" d="M265 223L266 224L265 223M126 224L127 225L126 224M166 224L167 225L166 224M227 224L228 225L227 224M267 224L268 225L267 224z"/>
<path style="fill:#000000; stroke:none;" d="M126 225L127 226L126 225M166 225L167 226L166 225M227 225L228 226L227 225M267 225L268 226L267 225M280 225L281 226L280 225M128 226L129 227L128 226M164 226L165 227L164 226z"/>
<path style="fill:#000000; stroke:none;" d="M179 226L180 227L179 226z"/>
<path style="fill:#000000; stroke:none;" d="M229 226L230 227L229 226M265 226L266 227L265 226z"/>
<path style="fill:#000000; stroke:none;" d="M280 226L281 227L280 226z"/>
<path style="fill:#000000; stroke:none;" d="M130 227L131 228L130 227z"/>
<path style="fill:#000000; stroke:none;" d="M162 227L163 228L162 227M231 227L232 228L231 227z"/>
<path style="fill:#000000; stroke:none;" d="M263 227L264 228L263 227z"/>
<path style="fill:#000000; stroke:none;" d="M132 228L133 229L132 228M160 228L161 229L160 228M233 228L234 229L233 228M261 228L262 229L261 228M134 229L135 230L134 229M259 229L260 230L259 229z"/>
<path style="fill:#000000; stroke:none;" d="M155 231L156 232L155 231M171 231L171 235L172 235L171 231M222 231L222 235L223 235L222 231M238 231L239 232L238 231z"/>
<path style="fill: #ffffff; stroke:none;" d="M122 232L123.028 254.61L143 266L141.972 243.39L122 232z"/>
<path style="fill:#000000; stroke:none;" d="M123 232L124 233L123 232z"/>
<path style="fill:#000000; stroke:none;" d="M139 232L140 233L139 232M153 232L154 233L153 232z"/>
<path style="fill:#000000; stroke:none;" d="M169 232L170 233L169 232z"/>
<path style="fill: #ffffff; stroke:none;" d="M170 232L152.028 242.637L151 266C165.123 258.569 177.712 250.379 170 232M223 232L224.028 254.61L243 266L241.972 242.637L223 232z"/>
<path style="fill:#000000; stroke:none;" d="M224 232L225 233L224 232M240 232L241 233L240 232M254 232L255 233L254 232z"/>
<path style="fill:#000000; stroke:none;" d="M270 232L271 233L270 232z"/>
<path style="fill: #ffffff; stroke:none;" d="M271 232L252.028 243.39L251 266C266.061 259.728 278.647 250.224 271 232z"/>
<path style="fill:#000000; stroke:none;" d="M125 233L126 234L125 233z"/>
<path style="fill:#000000; stroke:none;" d="M141 233L142 234L141 233M151 233L152 234L151 233M167 233L168 234L167 233M226 233L227 234L226 233z"/>
<path style="fill:#000000; stroke:none;" d="M242 233L243 234L242 233z"/>
<path style="fill:#000000; stroke:none;" d="M252 233L253 234L252 233z"/>
<path style="fill:#000000; stroke:none;" d="M268 233L269 234L268 233z"/>
<path style="fill:#000000; stroke:none;" d="M127 234L128 235L127 234M143 234L144 235L143 234z"/>
<path style="fill:#000000; stroke:none;" d="M149 234L150 235L149 234z"/>
<path style="fill:#000000; stroke:none;" d="M165 234L166 235L165 234M228 234L229 235L228 234z"/>
<path style="fill:#000000; stroke:none;" d="M244 234L245 235L244 234z"/>
<path style="fill:#000000; stroke:none;" d="M250 234L251 235L250 234M266 234L267 235L266 234M129 235L130 236L129 235z"/>
<path style="fill:#000000; stroke:none;" d="M145 235L146 236L145 235z"/>
<path style="fill:#000000; stroke:none;" d="M163 235L164 236L163 235z"/>
<path style="fill:#000000; stroke:none;" d="M171 235L172 236L171 235M222 235L223 236L222 235M248 235L249 236L248 235z"/>

<path style="fill:#000000; stroke:none;" d="M160 237L161 238L160 237M233 237L234 238L233 237M158 238L159 239L158 238M235 238L236 239L235 238M136 239L137 240L136 239z"/>
<path style="fill:#000000; stroke:none;" d="M156 239L157 240L156 239z"/>
<path style="fill:#000000; stroke:none;" d="M171 239L172 240L171 239M222 239L223 240L222 239z"/>
<path style="fill:#000000; stroke:none;" d="M237 239L238 240L237 239z"/>
<path style="fill:#000000; stroke:none;" d="M257 239L258 240L257 239z"/>

<path style="fill:#000000; stroke:none;" d="M171 243L172 244L171 243M222 243L223 244L222 243z"/>

<path style="fill:#000000; stroke:none;" d="M150 245L151 246L150 245M243 245L244 246L243 245z"/>
<path style="fill:#000000; stroke:none;" d="M150 246L150 249L151 249L150 246M243 246L243 249L244 249L243 246z"/>
<path style="fill:#000000; stroke:none;" d="M171 247L172 248L171 247M222 247L223 248L222 247z"/>
<path style="fill:#000000; stroke:none;" d="M171 248L171 251L172 251L171 248M222 248L222 251L223 251L222 248z"/>
<path style="fill:#000000; stroke:none;" d="M150 249L151 250L150 249M243 249L244 250L243 249z"/>
<path style="fill:#000000; stroke:none;" d="M150 250L150 253L151 253L150 250M243 250L243 253L244 253L243 250z"/>
<path style="fill:#000000; stroke:none;" d="M171 251L172 252L171 251M222 251L223 252L222 251z"/>
<path style="fill:#000000; stroke:none;" d="M171 252L171 255L172 255L171 252M222 252L222 255L223 255L222 252z"/>
<path style="fill:#000000; stroke:none;" d="M150 253L151 254L150 253M243 253L244 254L243 253z"/>
<path style="fill:#000000; stroke:none;" d="M150 254L150 257L151 257L150 254M243 254L243 257L244 257L243 254M168 256L169 257L168 256M225 256L226 257L225 256M126 257L127 258L126 257z"/>
<path style="fill:#000000; stroke:none;" d="M150 257L151 258L150 257z"/>
<path style="fill:#000000; stroke:none;" d="M166 257L167 258L166 257M227 257L228 258L227 257z"/>
<path style="fill:#000000; stroke:none;" d="M243 257L244 258L243 257z"/>
<path style="fill:#000000; stroke:none;" d="M267 257L268 258L267 257M114 258L115 259L114 258M128 258L129 259L128 258M150 258L150 261L151 261L150 258z"/>
<path style="fill:#000000; stroke:none;" d="M164 258L165 259L164 258M229 258L230 259L229 258z"/>
<path style="fill:#000000; stroke:none;" d="M243 258L243 261L244 261L243 258M265 258L266 259L265 258M279 258L280 259L279 258z"/>
<path style="fill:#000000; stroke:none;" d="M130 259L131 260L130 259M215 259L216 260L215 259M263 259L264 260L263 259z"/>
<path style="fill:#000000; stroke:none;" d="M116 260L117 261L116 260z"/>
<path style="fill:#000000; stroke:none;" d="M132 260L133 261L132 260M261 260L262 261L261 260z"/>
<path style="fill:#000000; stroke:none;" d="M277 260L278 261L277 260z"/>
<path style="fill:#000000; stroke:none;" d="M117 261L118 262L117 261M150 261L151 262L150 261z"/>
<path style="fill:#000000; stroke:none;" d="M159 261L160 262L159 261M234 261L235 262L234 261z"/>
<path style="fill:#000000; stroke:none;" d="M243 261L244 262L243 261z"/>
<path style="fill:#000000; stroke:none;" d="M135 262L136 263L135 262M150 262L150 266L151 266L150 262M157 262L158 263L157 262z"/>
<path style="fill:#000000; stroke:none;" d="M173 262L174 263L173 262M220 262L221 263L220 262z"/>
<path style="fill:#000000; stroke:none;" d="M236 262L237 263L236 262M243 262L243 266L244 266L243 262M258 262L259 263L258 262z"/>
<path style="fill:#000000; stroke:none;" d="M121 263L122 264L121 263z"/>
<path style="fill:#000000; stroke:none;" d="M137 263L138 264L137 263z"/>
<path style="fill:#000000; stroke:none;" d="M155 263L156 264L155 263z"/>
<path style="fill:#000000; stroke:none;" d="M171 263L172 264L171 263M222 263L223 264L222 263z"/>
<path style="fill:#000000; stroke:none;" d="M238 263L239 264L238 263z"/>
<path style="fill:#000000; stroke:none;" d="M256 263L257 264L256 263z"/>
<path style="fill:#000000; stroke:none;" d="M272 263L273 264L272 263M123 264L124 265L123 264z"/>
<path style="fill:#000000; stroke:none;" d="M139 264L140 265L139 264z"/>
<path style="fill:#000000; stroke:none;" d="M153 264L154 265L153 264z"/>
<path style="fill:#000000; stroke:none;" d="M169 264L170 265L169 264M224 264L225 265L224 264M254 264L255 265L254 264M270 264L271 265L270 264M125 265L126 266L125 265z"/>
<path style="fill:#000000; stroke:none;" d="M141 265L142 266L141 265M252 265L253 266L252 265z"/>
<path style="fill:#000000; stroke:none;" d="M268 265L269 266L268 265z"/>
<path style="fill:#000000; stroke:none;" d="M164 267L165 268L164 267M229 267L230 268L229 267M130 268L131 269L130 268M163 268L164 269L163 268M230 268L231 269L230 268M263 268L264 269L263 268z"/>
<path style="fill:#000000; stroke:none;" d="M132 269L133 270L132 269M261 269L262 270L261 269M134 270L135 271L134 270M166 270L167 271L166 270M227 270L228 271L227 270M259 270L260 271L259 270M168 271L169 272L168 271M225 271L226 272L225 271M257 271L258 272L257 271z"/>
<path style="fill:#000000; stroke:none;" d="M170 272L171 273L170 272M223 272L224 273L223 272M139 273L140 274L139 273z"/>
<path style="fill:#000000; stroke:none;" d="M153 273L154 274L153 273M156 273L157 274L156 273z"/>
<path style="fill:#000000; stroke:none;" d="M172 273L173 274L172 273M221 273L222 274L221 273z"/>
<path style="fill:#000000; stroke:none;" d="M237 273L238 274L237 273M240 273L241 274L240 273z"/>
<path style="fill:#000000; stroke:none;" d="M254 273L255 274L254 273z"/>
<path style="fill:#000000; stroke:none;" d="M141 274L142 275L141 274M151 274L152 275L151 274M242 274L243 275L242 274M252 274L253 275L252 274M143 275L144 276L143 275M149 275L150 276L149 275M175 275L176 276L175 275M218 275L219 276L218 275M250 275L251 276L250 275z"/>
<path style="fill:#000000; stroke:none;" d="M144 276L145 277L144 276z"/>
<path style="fill:#000000; stroke:none;" d="M145 276L146 277L145 276M147 276L148 277L147 276z"/>
<path style="fill:#000000; stroke:none;" d="M161 276L162 277L161 276z"/>
<path style="fill:#000000; stroke:none;" d="M177 276L178 277L177 276M216 276L217 277L216 276z"/>
<path style="fill:#000000; stroke:none;" d="M232 276L233 277L232 276M245 276L246 277L245 276z"/>
<path style="fill:#000000; stroke:none;" d="M246 276L247 277L246 276M248 276L249 277L248 276M163 277L164 278L163 277z"/>
<path style="fill:#000000; stroke:none;" d="M179 277L180 278L179 277M214 277L215 278L214 277z"/>
<path style="fill:#000000; stroke:none;" d="M230 277L231 278L230 277M165 278L166 279L165 278z"/>
<path style="fill:#000000; stroke:none;" d="M181 278L182 279L181 278M212 278L213 279L212 278z"/>
<path style="fill:#000000; stroke:none;" d="M228 278L229 279L228 278M184 280L185 281L184 280M209 280L210 281L209 280z"/>
<path style="fill:#000000; stroke:none;" d="M170 281L171 282L170 281z"/>
<path style="fill:#000000; stroke:none;" d="M186 281L187 282L186 281M207 281L208 282L207 281z"/>
<path style="fill:#000000; stroke:none;" d="M223 281L224 282L223 281z"/>
<path style="fill:#000000; stroke:none;" d="M172 282L173 283L172 282z"/>
<path style="fill:#000000; stroke:none;" d="M188 282L189 283L188 282M205 282L206 283L205 282z"/>
<path style="fill:#000000; stroke:none;" d="M221 282L222 283L221 282M174 283L175 284L174 283z"/>
<path style="fill:#000000; stroke:none;" d="M190 283L191 284L190 283M203 283L204 284L203 283z"/>
<path style="fill:#000000; stroke:none;" d="M219 283L220 284L219 283M193 285L194 286L193 285M200 285L201 286L200 285z"/>
<path style="fill:#000000; stroke:none;" d="M179 286L180 287L179 286z"/>
<path style="fill:#000000; stroke:none;" d="M195 286L196 287L195 286M198 286L199 287L198 286z"/>
<path style="fill:#000000; stroke:none;" d="M214 286L215 287L214 286z"/>
<path style="fill:#000000; stroke:none;" d="M181 287L182 288L181 287M212 287L213 288L212 287M183 288L184 289L183 288M210 288L211 289L210 288z"/>
<path style="fill:#000000; stroke:none;" d="M188 291L189 292L188 291M205 291L206 292L205 291z"/>
<path style="fill:#000000; stroke:none;" d="M190 292L191 293L190 292M203 292L204 293L203 292M192 293L193 294L192 293M201 293L202 294L201 293M196.667 295.333L197.333 295.667L196.667 295.333M45 302L46 303L45 302M348 302L349 303L348 302z"/>
<path style="fill:#000000; stroke:none;" d="M47 303L48 304L47 303M346 303L347 304L346 303M49 304L50 305L49 304M344 304L345 305L344 304z"/>
<path style="fill:#000000; stroke:none;" d="M52 306L53 307L52 306M341 306L342 307L341 306z"/>
<path style="fill:#000000; stroke:none;" d="M54 307L55 308L54 307M339 307L340 308L339 307M56 308L57 309L56 308M337 308L338 309L337 308z"/>
<path style="fill:#000000; stroke:none;" d="M57 309L58 310L57 309M336 309L337 310L336 309z"/>
<path style="fill:#000000; stroke:none;" d="M28 310L29 311L28 310z"/>
<path style="fill:#000000; stroke:none;" d="M59 310L60 311L59 310M334 310L335 311L334 310z"/>
<path style="fill:#000000; stroke:none;" d="M365 310L366 311L365 310z"/>
<path style="fill:#000000; stroke:none;" d="M30 311L31 312L30 311z"/>
<path style="fill:#000000; stroke:none;" d="M61 311L62 312L61 311M332 311L333 312L332 311z"/>
<path style="fill:#000000; stroke:none;" d="M363 311L364 312L363 311z"/>
<path style="fill:#000000; stroke:none;" d="M33 313L34 314L33 313z"/>
<path style="fill:#000000; stroke:none;" d="M64 313L65 314L64 313M329 313L330 314L329 313z"/>
<path style="fill:#000000; stroke:none;" d="M360 313L361 314L360 313z"/>
<path style="fill:#000000; stroke:none;" d="M35 314L36 315L35 314z"/>
<path style="fill:#000000; stroke:none;" d="M66 314L67 315L66 314M327 314L328 315L327 314M358 314L359 315L358 314z"/>
<path style="fill:#000000; stroke:none;" d="M37 315L38 316L37 315z"/>
<path style="fill:#000000; stroke:none;" d="M68 315L69 316L68 315M325 315L326 316L325 315z"/>
<path style="fill:#000000; stroke:none;" d="M356 315L357 316L356 315z"/>
<path style="fill:#000000; stroke:none;" d="M40 317L41 318L40 317z"/>
<path style="fill:#000000; stroke:none;" d="M71 317L72 318L71 317M322 317L323 318L322 317z"/>
<path style="fill:#000000; stroke:none;" d="M353 317L354 318L353 317z"/>
<path style="fill:#000000; stroke:none;" d="M42 318L43 319L42 318z"/>
<path style="fill:#000000; stroke:none;" d="M73 318L74 319L73 318M320 318L321 319L320 318z"/>
<path style="fill:#000000; stroke:none;" d="M351 318L352 319L351 318z"/>
<path style="fill:#000000; stroke:none;" d="M318 319L319 320L318 319z"/>
<path style="fill:#000000; stroke:none;" d="M349 319L350 320L349 319z"/>
<path style="fill:#000000; stroke:none;" d="M45 320L46 321L45 320z"/>
<path style="fill:#000000; stroke:none;" d="M76 320L77 321L76 320M317 320L318 321L317 320z"/>
<path style="fill:#000000; stroke:none;" d="M47 321L48 322L47 321z"/>
<path style="fill:#000000; stroke:none;" d="M78 321L79 322L78 321M315 321L316 322L315 321z"/>
<path style="fill:#000000; stroke:none;" d="M346 321L347 322L346 321z"/>
<path style="fill:#000000; stroke:none;" d="M49 322L50 323L49 322z"/>
<path style="fill:#000000; stroke:none;" d="M80 322L81 323L80 322M313 322L314 323L313 322z"/>
<path style="fill:#000000; stroke:none;" d="M344 322L345 323L344 322M342 323L343 324L342 323z"/>
<path style="fill:#000000; stroke:none;" d="M52 324L53 325L52 324z"/>
<path style="fill:#000000; stroke:none;" d="M83 324L84 325L83 324M310 324L311 325L310 324z"/>
<path style="fill:#000000; stroke:none;" d="M341 324L342 325L341 324M54 325L55 326L54 325M85 325L86 326L85 325z"/>
<path style="fill:#000000; stroke:none;" d="M308 325L309 326L308 325z"/>
<path style="fill:#000000; stroke:none;" d="M339 325L340 326L339 325z"/>
<path style="fill:#000000; stroke:none;" d="M56 326L57 327L56 326z"/>
<path style="fill:#000000; stroke:none;" d="M87 326L88 327L87 326M306 326L307 327L306 326z"/>
<path style="fill:#000000; stroke:none;" d="M337 326L338 327L337 326M88 327L89 328L88 327z"/>
<path style="fill:#000000; stroke:none;" d="M59 328L60 329L59 328z"/>
<path style="fill:#000000; stroke:none;" d="M90 328L91 329L90 328M303 328L304 329L303 328z"/>
<path style="fill:#000000; stroke:none;" d="M334 328L335 329L334 328z"/>
<path style="fill:#000000; stroke:none;" d="M61 329L62 330L61 329z"/>
<path style="fill:#000000; stroke:none;" d="M92 329L93 330L92 329M301 329L302 330L301 329M332 329L333 330L332 329z"/>
<path style="fill:#000000; stroke:none;" d="M63 330L64 331L63 330z"/>
<path style="fill:#000000; stroke:none;" d="M299 330L300 331L299 330z"/>
<path style="fill:#000000; stroke:none;" d="M330 330L331 331L330 330M95 331L96 332L95 331z"/>
<path style="fill:#000000; stroke:none;" d="M66 332L67 333L66 332z"/>
<path style="fill:#000000; stroke:none;" d="M97 332L98 333L97 332M296 332L297 333L296 332z"/>
<path style="fill:#000000; stroke:none;" d="M327 332L328 333L327 332z"/>
<path style="fill:#000000; stroke:none;" d="M68 333L69 334L68 333z"/>
<path style="fill:#000000; stroke:none;" d="M99 333L100 334L99 333M294 333L295 334L294 333z"/>
<path style="fill:#000000; stroke:none;" d="M325 333L326 334L325 333M70 334L71 335L70 334M323 334L324 335L323 334z"/>
<path style="fill:#000000; stroke:none;" d="M71 335L72 336L71 335z"/>
<path style="fill:#000000; stroke:none;" d="M102 335L103 336L102 335M291 335L292 336L291 335z"/>
<path style="fill:#000000; stroke:none;" d="M73 336L74 337L73 336M104 336L105 337L104 336z"/>
<path style="fill:#000000; stroke:none;" d="M289 336L290 337L289 336z"/>
<path style="fill:#000000; stroke:none;" d="M320 336L321 337L320 336z"/>
<path style="fill:#000000; stroke:none;" d="M75 337L76 338L75 337z"/>
<path style="fill:#000000; stroke:none;" d="M106 337L107 338L106 337M287 337L288 338L287 337z"/>
<path style="fill:#000000; stroke:none;" d="M318 337L319 338L318 337z"/>
<path style="fill:#000000; stroke:none;" d="M78 339L79 340L78 339z"/>
<path style="fill:#000000; stroke:none;" d="M109 339L110 340L109 339M284 339L285 340L284 339z"/>
<path style="fill:#000000; stroke:none;" d="M315 339L316 340L315 339M80 340L81 341L80 340z"/>
<path style="fill:#000000; stroke:none;" d="M111 340L112 341L111 340z"/>
<path style="fill:#000000; stroke:none;" d="M282 340L283 341L282 340M313 340L314 341L313 340z"/>
<path style="fill:#000000; stroke:none;" d="M82 341L83 342L82 341z"/>
<path style="fill:#000000; stroke:none;" d="M113 341L114 342L113 341M280 341L281 342L280 341z"/>
<path style="fill:#000000; stroke:none;" d="M311 341L312 342L311 341z"/>
<path style="fill:#000000; stroke:none;" d="M85 343L86 344L85 343z"/>
<path style="fill:#000000; stroke:none;" d="M116 343L117 344L116 343M277 343L278 344L277 343z"/>
<path style="fill:#000000; stroke:none;" d="M308 343L309 344L308 343z"/>
<path style="fill:#000000; stroke:none;" d="M87 344L88 345L87 344z"/>
<path style="fill:#000000; stroke:none;" d="M118 344L119 345L118 344M275 344L276 345L275 344z"/>
<path style="fill:#000000; stroke:none;" d="M306 344L307 345L306 344M89 345L90 346L89 345z"/>
<path style="fill:#000000; stroke:none;" d="M120 345L121 346L120 345z"/>
<path style="fill:#000000; stroke:none;" d="M304 345L305 346L304 345M272 346L273 347L272 346z"/>
<path style="fill:#000000; stroke:none;" d="M92 347L93 348L92 347z"/>
<path style="fill:#000000; stroke:none;" d="M123 347L124 348L123 347M270 347L271 348L270 347z"/>
<path style="fill:#000000; stroke:none;" d="M301 347L302 348L301 347z"/>
<path style="fill:#000000; stroke:none;" d="M94 348L95 349L94 348z"/>
<path style="fill:#000000; stroke:none;" d="M125 348L126 349L125 348M268 348L269 349L268 348z"/>
<path style="fill:#000000; stroke:none;" d="M299 348L300 349L299 348M297 349L298 350L297 349z"/>
<path style="fill:#000000; stroke:none;" d="M97 350L98 351L97 350z"/>
<path style="fill:#000000; stroke:none;" d="M128 350L129 351L128 350M265 350L266 351L265 350z"/>
<path style="fill:#000000; stroke:none;" d="M296 350L297 351L296 350M99 351L100 352L99 351z"/>
<path style="fill:#000000; stroke:none;" d="M130 351L131 352L130 351z"/>
<path style="fill:#000000; stroke:none;" d="M263 351L264 352L263 351M294 351L295 352L294 351z"/>
<path style="fill:#000000; stroke:none;" d="M101 352L102 353L101 352z"/>
<path style="fill:#000000; stroke:none;" d="M132 352L133 353L132 352M261 352L262 353L261 352z"/>
<path style="fill:#000000; stroke:none;" d="M292 352L293 353L292 352z"/>
<path style="fill:#000000; stroke:none;" d="M104 354L105 355L104 354z"/>
<path style="fill:#000000; stroke:none;" d="M135 354L136 355L135 354M258 354L259 355L258 354z"/>
<path style="fill:#000000; stroke:none;" d="M289 354L290 355L289 354z"/>
<path style="fill:#000000; stroke:none;" d="M106 355L107 356L106 355z"/>
<path style="fill:#000000; stroke:none;" d="M137 355L138 356L137 355M256 355L257 356L256 355M287 355L288 356L287 355M139 356L140 357L139 356M254 356L255 357L254 356z"/>
<path style="fill:#000000; stroke:none;" d="M285 356L286 357L285 356z"/>
<path style="fill:#000000; stroke:none;" d="M109 357L110 358L109 357z"/>
<path style="fill:#000000; stroke:none;" d="M140 357L141 358L140 357M253 357L254 358L253 357M111 358L112 359L111 358M142 358L143 359L142 358M251 358L252 359L251 358z"/>
<path style="fill:#000000; stroke:none;" d="M282 358L283 359L282 358z"/>
<path style="fill:#000000; stroke:none;" d="M113 359L114 360L113 359z"/>
<path style="fill:#000000; stroke:none;" d="M144 359L145 360L144 359M249 359L250 360L249 359z"/>
<path style="fill:#000000; stroke:none;" d="M280 359L281 360L280 359M278 360L279 361L278 360z"/>
<path style="fill:#000000; stroke:none;" d="M116 361L117 362L116 361z"/>
<path style="fill:#000000; stroke:none;" d="M147 361L148 362L147 361M246 361L247 362L246 361M118 362L119 363L118 362M149 362L150 363L149 362z"/>
<path style="fill:#000000; stroke:none;" d="M244 362L245 363L244 362M275 362L276 363L275 362z"/>
<path style="fill:#000000; stroke:none;" d="M120 363L121 364L120 363z"/>
<path style="fill:#000000; stroke:none;" d="M151 363L152 364L151 363M242 363L243 364L242 363z"/>
<path style="fill:#000000; stroke:none;" d="M273 363L274 364L273 363z"/>
<path style="fill:#000000; stroke:none;" d="M121 364L122 365L121 364M123 365L124 366L123 365z"/>
<path style="fill:#000000; stroke:none;" d="M154 365L155 366L154 365M239 365L240 366L239 365z"/>
<path style="fill:#000000; stroke:none;" d="M270 365L271 366L270 365z"/>
<path style="fill:#000000; stroke:none;" d="M125 366L126 367L125 366z"/>
<path style="fill:#000000; stroke:none;" d="M156 366L157 367L156 366M237 366L238 367L237 366M268 366L269 367L268 366M158 367L159 368L158 367M235 367L236 368L235 367z"/>
<path style="fill:#000000; stroke:none;" d="M266 367L267 368L266 367z"/>
<path style="fill:#000000; stroke:none;" d="M128 368L129 369L128 368z"/>
<path style="fill:#000000; stroke:none;" d="M234 368L235 369L234 368z"/>
<path style="fill:#000000; stroke:none;" d="M130 369L131 370L130 369z"/>
<path style="fill:#000000; stroke:none;" d="M161 369L162 370L161 369M232 369L233 370L232 369z"/>
<path style="fill:#000000; stroke:none;" d="M263 369L264 370L263 369z"/>
<path style="fill:#000000; stroke:none;" d="M132 370L133 371L132 370z"/>
<path style="fill:#000000; stroke:none;" d="M163 370L164 371L163 370M230 370L231 371L230 370z"/>
<path style="fill:#000000; stroke:none;" d="M261 370L262 371L261 370M259 371L260 372L259 371z"/>
<path style="fill:#000000; stroke:none;" d="M135 372L136 373L135 372z"/>
<path style="fill:#000000; stroke:none;" d="M166 372L167 373L166 372M227 372L228 373L227 372z"/>
<path style="fill:#000000; stroke:none;" d="M137 373L138 374L137 373z"/>
<path style="fill:#000000; stroke:none;" d="M168 373L169 374L168 373z"/>
<path style="fill:#000000; stroke:none;" d="M225 373L226 374L225 373M256 373L257 374L256 373z"/>
<path style="fill:#000000; stroke:none;" d="M139 374L140 375L139 374z"/>
<path style="fill:#000000; stroke:none;" d="M170 374L171 375L170 374M223 374L224 375L223 374z"/>
<path style="fill:#000000; stroke:none;" d="M254 374L255 375L254 374M252 375L253 376L252 375z"/>
<path style="fill:#000000; stroke:none;" d="M142 376L143 377L142 376z"/>
<path style="fill:#000000; stroke:none;" d="M173 376L174 377L173 376M220 376L221 377L220 376z"/>
<path style="fill:#000000; stroke:none;" d="M251 376L252 377L251 376z"/>
<path style="fill:#000000; stroke:none;" d="M144 377L145 378L144 377z"/>
<path style="fill:#000000; stroke:none;" d="M175 377L176 378L175 377M218 377L219 378L218 377M249 377L250 378L249 377z"/>
<path style="fill:#000000; stroke:none;" d="M146 378L147 379L146 378z"/>
<path style="fill:#000000; stroke:none;" d="M177 378L178 379L177 378M216 378L217 379L216 378z"/>
<path style="fill:#000000; stroke:none;" d="M247 378L248 379L247 378M178 379L179 380L178 379z"/>
<path style="fill:#000000; stroke:none;" d="M149 380L150 381L149 380z"/>
<path style="fill:#000000; stroke:none;" d="M180 380L181 381L180 380M213 380L214 381L213 380z"/>
<path style="fill:#000000; stroke:none;" d="M244 380L245 381L244 380z"/>
<path style="fill:#000000; stroke:none;" d="M151 381L152 382L151 381z"/>
<path style="fill:#000000; stroke:none;" d="M182 381L183 382L182 381M211 381L212 382L211 381M242 381L243 382L242 381z"/>
<path style="fill:#000000; stroke:none;" d="M153 382L154 383L153 382M240 382L241 383L240 382z"/>
<path style="fill:#000000; stroke:none;" d="M154 383L155 384L154 383z"/>
<path style="fill:#000000; stroke:none;" d="M185 383L186 384L185 383M208 383L209 384L208 383z"/>
<path style="fill:#000000; stroke:none;" d="M156 384L157 385L156 384z"/>
<path style="fill:#000000; stroke:none;" d="M187 384L188 385L187 384M206 384L207 385L206 384z"/>
<path style="fill:#000000; stroke:none;" d="M237 384L238 385L237 384z"/>
<path style="fill:#000000; stroke:none;" d="M158 385L159 386L158 385z"/>
<path style="fill:#000000; stroke:none;" d="M189 385L190 386L189 385M204 385L205 386L204 385z"/>
<path style="fill:#000000; stroke:none;" d="M235 385L236 386L235 385M233 386L234 387L233 386z"/>
<path style="fill:#000000; stroke:none;" d="M161 387L162 388L161 387z"/>
<path style="fill:#000000; stroke:none;" d="M192 387L193 388L192 387M201 387L202 388L201 387z"/>
<path style="fill:#000000; stroke:none;" d="M163 388L164 389L163 388M194 388L195 389L194 388M199 388L200 389L199 388M230 388L231 389L230 388z"/>
<path style="fill:#000000; stroke:none;" d="M165 389L166 390L165 389z"/>
<path style="fill:#000000; stroke:none;" d="M196.667 389.333L197.333 389.667L196.667 389.333z"/>
<path style="fill:#000000; stroke:none;" d="M228 389L229 390L228 389z"/>
<path style="fill:#000000; stroke:none;" d="M168 391L169 392L168 391M225 391L226 392L225 391M170 392L171 393L170 392M223 392L224 393L223 392z"/>
<path style="fill:#000000; stroke:none;" d="M172 393L173 394L172 393M221 393L222 394L221 393z"/>
<path style="fill:#000000; stroke:none;" d="M175 395L176 396L175 395M218 395L219 396L218 395z"/>
<path style="fill:#000000; stroke:none;" d="M177 396L178 397L177 396z"/>
<path style="fill:#000000; stroke:none;" d="M216 396L217 397L216 396z"/>
<path style="fill:#000000; stroke:none;" d="M179 397L180 398L179 397M214 397L215 398L214 397z"/>
<path style="fill:#000000; stroke:none;" d="M182 399L183 400L182 399M211 399L212 400L211 399z"/>
<path style="fill:#000000; stroke:none;" d="M184 400L185 401L184 400M209 400L210 401L209 400M207 401L208 402L207 401z"/>
<path style="fill:#000000; stroke:none;" d="M187 402L188 403L187 402M206 402L207 403L206 402M189 403L190 404L189 403M204 403L205 404L204 403z"/>
<path style="fill:#000000; stroke:none;" d="M191 404L192 405L191 404M202 404L203 405L202 404z"/>
<path style="fill:#000000; stroke:none;" d="M194 406L195 407L194 406M199 406L200 407L199 406M196.667 407.333L197.333 407.667L196.667 407.333z"/>
</svg>